<svg width="83" height="83" viewBox="0 0 83 83" fill="none" xmlns="http://www.w3.org/2000/svg">
<path d="M20.75 40.1167H26.2833V42.8834H20.75V40.1167Z" fill="black"/>
<path d="M16.6 40.1167H19.3667V42.8834H16.6V40.1167Z" fill="black"/>
<path d="M27.6667 40.1167H30.4333V42.8834H27.6667V40.1167Z" fill="black"/>
<path d="M16.6 44.2666H30.4333V47.0333H16.6V44.2666Z" fill="black"/>
<path d="M16.6 35.9667H30.4333V38.7333H16.6V35.9667Z" fill="black"/>
<path d="M38.7333 31.8167H33.2C32.4361 31.8167 31.8167 32.436 31.8167 33.2V71.9333C31.8167 72.6973 32.4361 73.3167 33.2 73.3167H38.7333C39.4973 73.3167 40.1167 72.6973 40.1167 71.9333V33.2C40.1167 32.436 39.4973 31.8167 38.7333 31.8167ZM37.35 70.55H34.5833V34.5833H37.35V70.55Z" fill="black"/>
<path d="M52.5667 70.55H55.3333V73.3167H52.5667V70.55Z" fill="black"/>
<path d="M48.4167 70.55H51.1833V73.3167H48.4167V70.55Z" fill="black"/>
<path d="M52.5667 66.4H55.3333V69.1667H52.5667V66.4Z" fill="black"/>
<path d="M22.1333 4.15002H24.9V6.91669H22.1333V4.15002Z" fill="black"/>
<path d="M26.2833 4.15002H29.05V6.91669H26.2833V4.15002Z" fill="black"/>
<path d="M30.4333 4.15002H33.2V6.91669H30.4333V4.15002Z" fill="black"/>
<path d="M34.5833 4.15002H37.35V6.91669H34.5833V4.15002Z" fill="black"/>
<path d="M38.7333 4.15002H41.5V6.91669H38.7333V4.15002Z" fill="black"/>
<path d="M42.8833 4.15002H45.65V6.91669H42.8833V4.15002Z" fill="black"/>
<path d="M47.0333 4.15002H49.8V6.91669H47.0333V4.15002Z" fill="black"/>
<path d="M34.5833 15.2167H37.35V17.9833H34.5833V15.2167Z" fill="black"/>
<path d="M72.625 56.7167C69.9509 56.7167 67.7833 58.8842 67.7833 61.5583V75.3917C67.7833 76.5379 66.8546 77.4667 65.7083 77.4667H63.6333V76.0833C63.6333 75.3194 63.0139 74.7 62.25 74.7H59.4833V33.2H60.8667C62.3945 33.2 63.6333 31.9612 63.6333 30.4333V24.9C63.6333 23.3721 62.3945 22.1333 60.8667 22.1333H59.4833V13.8333C59.4752 6.19663 53.2867 0.00810547 45.65 0H26.2833C18.6486 0.0121582 12.4622 6.19866 12.45 13.8333V22.1333H11.0667C9.53878 22.1333 8.29999 23.3721 8.29999 24.9V30.4333C8.29999 31.9612 9.53878 33.2 11.0667 33.2H12.45V74.7H9.68333C8.91938 74.7 8.29999 75.3194 8.29999 76.0833V80.2333H5.53333V83H66.4V80.2333H65.7083C68.3825 80.2333 70.55 78.0658 70.55 75.3917V61.5583C70.55 60.4121 71.4787 59.4833 72.625 59.4833C73.7712 59.4833 74.7 60.4121 74.7 61.5583V70.55H77.4667V61.5583C77.4667 58.8842 75.2991 56.7167 72.625 56.7167ZM34.5833 23.5167H37.35V24.9H34.5833V23.5167ZM38.7333 20.75H31.431L30.4333 17.7577V15.2167C30.4299 14.8648 30.4766 14.5142 30.5718 14.1751C31.0399 12.3433 32.6927 11.0626 34.5833 11.0667H37.35C39.2528 11.0653 40.9117 12.3615 41.3717 14.2082C41.4608 14.5365 41.5047 14.8762 41.5 15.2167V17.7577L40.5023 20.75H38.7333ZM15.2167 15.2167H27.6667V16.6H15.2167V15.2167ZM44.2667 15.2167H56.7167V16.6H44.2667V15.2167ZM60.8667 24.9V30.4333H59.4833V24.9H60.8667ZM18.4676 6.01088C20.5318 3.9244 23.3485 2.75518 26.2833 2.76667H45.65C51.2245 2.7741 55.9264 6.92004 56.6309 12.45H43.6831C42.5882 9.92785 40.0998 8.29662 37.35 8.3H34.5833C31.8329 8.29662 29.3431 9.92717 28.2476 12.45H15.3024C15.601 10.0082 16.7168 7.7387 18.4676 6.01088ZM11.0667 30.4333V24.9H12.45V30.4333H11.0667ZM15.2167 19.3667H28.0523L29.1202 22.5704C29.3087 23.1357 29.8376 23.5167 30.4333 23.5167H31.8167V26.2833C31.8167 27.0473 32.4361 27.6667 33.2 27.6667H38.7333C39.4973 27.6667 40.1167 27.0473 40.1167 26.2833V23.5167H41.5C42.0957 23.5167 42.6246 23.1357 42.8131 22.5704L43.881 19.3667H56.7167V74.7H15.2167V19.3667ZM11.0667 80.2333V77.4667H59.4833V80.2333H11.0667Z" fill="black"/>
</svg>
