<svg width="83" height="83" viewBox="0 0 83 83" fill="none" xmlns="http://www.w3.org/2000/svg">
<path d="M65.168 26.9102C64.2731 26.9102 63.5469 27.6364 63.5469 28.5312C63.5469 29.4261 64.2731 30.1523 65.168 30.1523C66.0628 30.1523 66.7891 29.4261 66.7891 28.5312C66.7891 27.6364 66.0628 26.9102 65.168 26.9102Z" fill="black"/>
<path d="M78.1367 20.4258H60.3339L55.194 10.1459C54.3645 8.4874 52.6977 7.45703 50.844 7.45703H32.156C30.302 7.45703 28.6352 8.4874 27.806 10.1461L22.6661 20.4258H19.4531V18.8047C19.4531 16.1231 17.2715 13.9414 14.5898 13.9414H11.3477C8.66604 13.9414 6.48438 16.1231 6.48438 18.8047V20.4258H4.86328C2.18167 20.4258 0 22.6074 0 25.2891C0 29.6944 0 68.966 0 70.6797C0 73.3613 2.18167 75.543 4.86328 75.543H78.1367C80.8183 75.543 83 73.3613 83 70.6797C83 66.2744 83 27.0027 83 25.2891C83 22.6074 80.8183 20.4258 78.1367 20.4258ZM30.7059 11.596C30.9825 11.0429 31.5381 10.6992 32.156 10.6992H50.844C51.4619 10.6992 52.0177 11.0429 52.2942 11.596L56.7091 20.4258H26.2909L30.7059 11.596ZM9.72656 18.8047C9.72656 17.9108 10.4538 17.1836 11.3477 17.1836H14.5898C15.4837 17.1836 16.2109 17.9108 16.2109 18.8047V20.4258H9.72656V18.8047ZM3.24219 36.6205H23.7411C21.5866 39.9861 20.4258 43.9303 20.4258 47.9844C20.4258 52.0387 21.5868 55.9671 23.7409 59.332H3.24219V36.6205ZM41.5 30.1523C51.2481 30.1523 59.332 38.0501 59.332 47.9844C59.332 57.9074 51.2595 65.8164 41.5 65.8164C31.7318 65.8164 23.668 57.8987 23.668 47.9844C23.668 38.0625 31.7394 30.1523 41.5 30.1523ZM79.7578 70.6797C79.7578 71.5736 79.0306 72.3008 78.1367 72.3008H4.86328C3.96941 72.3008 3.24219 71.5736 3.24219 70.6797V62.5742H26.2984C30.2595 66.7035 35.7573 69.0586 41.5 69.0586C47.2437 69.0586 52.742 66.7028 56.7018 62.5742H79.7578V70.6797ZM79.7578 59.332H59.2589C61.4134 55.9665 62.5742 52.0386 62.5742 47.9844C62.5742 43.9302 61.4134 40.0023 59.2589 36.6367H79.7578V59.332ZM79.7578 33.3945H56.7016C52.7407 29.2653 47.2429 26.9102 41.5 26.9102C35.7565 26.9102 30.2582 29.2659 26.2982 33.3945H3.24219V25.2891C3.24219 24.3952 3.96941 23.668 4.86328 23.668C6.3354 23.668 75.8578 23.668 78.1367 23.668C79.0306 23.668 79.7578 24.3952 79.7578 25.2891V33.3945Z" fill="black"/>
<path d="M46.3633 13.9414H36.6367C35.7414 13.9414 35.0156 14.6672 35.0156 15.5625C35.0156 16.4578 35.7414 17.1836 36.6367 17.1836H46.3633C47.2584 17.1836 47.9844 16.4578 47.9844 15.5625C47.9844 14.6672 47.2584 13.9414 46.3633 13.9414Z" fill="black"/>
<path d="M41.5 33.3945C33.4552 33.3945 26.9102 39.9395 26.9102 47.9844C26.9102 56.0292 33.4552 62.5742 41.5 62.5742C49.5448 62.5742 56.0898 56.0292 56.0898 47.9844C56.0898 39.9395 49.5448 33.3945 41.5 33.3945ZM41.5 59.332C35.2429 59.332 30.1523 54.2415 30.1523 47.9844C30.1523 41.7273 35.2429 36.6367 41.5 36.6367C47.7571 36.6367 52.8477 41.7273 52.8477 47.9844C52.8477 54.2415 47.7571 59.332 41.5 59.332Z" fill="black"/>
<path d="M41.5 39.8789C37.0306 39.8789 33.3945 43.515 33.3945 47.9844C33.3945 48.8797 34.1203 49.6055 35.0156 49.6055C35.911 49.6055 36.6367 48.8797 36.6367 47.9844C36.6367 45.3028 38.8184 43.1211 41.5 43.1211C42.3952 43.1211 43.1211 42.3953 43.1211 41.5C43.1211 40.6047 42.3952 39.8789 41.5 39.8789Z" fill="black"/>
<path d="M74.8945 26.9102H71.6523C70.7572 26.9102 70.0312 27.6359 70.0312 28.5312C70.0312 29.4266 70.7572 30.1523 71.6523 30.1523H74.8945C75.7897 30.1523 76.5156 29.4266 76.5156 28.5312C76.5156 27.6359 75.7897 26.9102 74.8945 26.9102Z" fill="black"/>
</svg>
