<svg width="106" height="106" viewBox="0 0 106 106" fill="none" xmlns="http://www.w3.org/2000/svg">
<path d="M17.2621 51.6654C17.0768 51.9631 17.4035 52.3182 17.695 52.1356L25.1069 47.4919C25.2671 47.3915 25.3145 47.1675 25.2046 47.0097C22.9148 43.7262 18.7396 41.4849 13.5895 41.4849C6.08382 41.4851 0 46.6404 0 52.9999C0 59.3821 6.10804 64.515 13.5895 64.515C18.257 64.515 22.4362 62.6288 24.8247 59.4877C24.9692 59.2976 24.8545 59.0947 24.7541 58.7535C24.6783 58.496 24.3585 58.4314 24.1986 58.6426C23.2817 59.8539 20.6739 62.7385 16.6302 62.7385C13.1662 62.7385 10.0534 60.7854 8.35599 57.8739C3.58226 49.7148 11.3822 39.2491 20.4518 44.9882C20.6058 45.0858 20.6501 45.2986 20.5518 45.4565L17.2621 51.6654Z" fill="black"/>
<path d="M25.7485 58.3208C25.7485 61.5352 28.9446 64.1407 32.8875 64.1407C36.1828 64.1407 38.9569 62.3205 39.779 59.8456L40.8647 63.6442C40.9489 63.9388 41.2079 64.1407 41.5019 64.1407H46.5158C46.882 64.1407 47.1452 63.772 47.0408 63.4045C46.5698 61.7449 43.2842 50.1661 42.8182 48.5239C42.8182 48.5239 41.1427 43.751 35.8562 45.7634C33.1461 46.795 31.512 47.4943 30.563 47.931C30.2696 48.066 30.3636 48.5239 30.6841 48.5239H35.952C36.3023 48.5239 36.6112 48.7645 36.7116 49.1156L38.243 54.4725C36.9348 53.2635 35.0204 52.501 32.8873 52.501C28.9647 52.501 25.7485 55.0884 25.7485 58.3208ZM35.7234 54.6858C37.6948 54.6858 39.3043 56.3551 39.3043 58.4322C39.3043 60.5692 37.594 62.2886 35.5272 62.1733C33.4906 62.0596 31.8619 60.0994 32.1822 57.8705C32.4414 56.0679 33.9281 54.6858 35.7234 54.6858Z" fill="black"/>
<path d="M59.0066 63.4833C59.0066 63.8464 59.288 64.1408 59.6349 64.1408H64.8666C65.178 64.1408 65.4306 63.8767 65.4306 63.5508C65.4306 61.8589 65.4306 50.1586 65.4306 48.5485C65.3819 46.7357 63.9627 45.2817 62.2185 45.2817C60.6405 45.2817 58.3932 46.7475 56.0854 48.0794C55.8637 48.2073 55.5796 48.0866 55.5204 47.8291C55.184 46.366 54.029 45.2819 52.5232 45.2819C51.2019 45.2819 48.0271 47.0806 46.4928 47.9986C46.2533 48.1419 46.351 48.5241 46.6272 48.5241H48.9016C49.1279 48.5241 49.3113 48.716 49.3113 48.9526C49.3113 50.3673 49.3113 61.7345 49.3113 63.7135C49.3113 63.9493 49.4941 64.1406 49.7196 64.1406H55.1086C55.3889 64.1406 55.6161 63.903 55.6161 63.6098C55.6161 63.6038 55.6156 49.6977 55.6167 49.6917C56.315 47.822 59.0066 48.311 59.0066 50.4434C59.0066 54.7257 59.0066 59.7188 59.0066 63.4833Z" fill="black"/>
<path d="M76.7616 64.5148C81.8707 64.5148 86.0132 60.182 86.0132 54.8357C86.0132 49.4899 81.8714 45.1567 76.7616 45.1567C70.4499 45.1567 66.0045 51.6304 67.9736 57.8682C69.1903 61.7292 72.6649 64.5148 76.7616 64.5148ZM75.1257 46.1275C76.3422 46.1275 77.3444 47.0888 77.4757 48.3251C81.1482 61.4575 80.9202 60.5609 80.9202 60.8714C80.9202 62.2376 79.8617 63.345 78.5557 63.345C77.2784 63.345 76.2376 62.2848 76.2204 60.96C75.0845 57.03 75.4217 58.1966 72.6257 48.5239C72.7723 47.3051 73.9209 46.1275 75.1257 46.1275Z" fill="black"/>
<path d="M99.576 63.4833C99.576 63.8464 99.8574 64.1408 100.204 64.1408H105.436C105.747 64.1408 106 63.8767 106 63.5508C106 61.8589 106 50.1586 106 48.5485C105.951 46.7357 104.532 45.2817 102.788 45.2817C101.21 45.2817 98.9626 46.7475 96.6548 48.0794C96.4331 48.2073 96.149 48.0866 96.0898 47.8291C95.7534 46.366 94.5984 45.2819 93.0926 45.2819C91.7714 45.2819 88.5965 47.0806 87.0622 47.9986C86.8227 48.1419 86.9204 48.5241 87.1966 48.5241H89.471C89.6973 48.5241 89.8808 48.716 89.8808 48.9526C89.8808 50.3673 89.8808 61.7345 89.8808 63.7135C89.8808 63.9493 90.0636 64.1406 90.289 64.1406H95.6781C95.9584 64.1406 96.1855 63.903 96.1855 63.6098C96.1855 63.6038 96.1851 49.6975 96.1861 49.6917C96.8844 47.822 99.576 48.311 99.576 50.4434C99.576 54.7257 99.576 59.7188 99.576 63.4833Z" fill="black"/>
<path d="M53.1507 63.6434C53.1507 61.3391 53.1507 48.1042 53.1507 46.4569C53.1507 46.1813 52.9673 45.9577 52.741 45.9577H50.4665C50.4287 45.9577 50.3949 45.948 50.3643 45.9331C48.9941 46.5405 47.4348 47.4347 46.493 47.9982C46.2533 48.1417 46.3512 48.5237 46.6274 48.5237H48.9018C49.1281 48.5237 49.3115 48.7156 49.3115 48.9522C49.3115 50.3669 49.3115 61.7341 49.3115 63.7132C49.3115 63.949 49.4943 64.1403 49.7198 64.1403H53.559C53.3333 64.1407 53.1507 63.9179 53.1507 63.6434Z" fill="black"/>
<path d="M93.7202 63.6434C93.7202 61.3391 93.7202 48.1042 93.7202 46.4569C93.7202 46.1813 93.5367 45.9577 93.3104 45.9577H91.036C90.9981 45.9577 90.9644 45.948 90.9335 45.9331C89.5634 46.5405 88.004 47.4347 87.0622 47.9982C86.8227 48.1417 86.9206 48.5237 87.1966 48.5237H89.471C89.6973 48.5237 89.8808 48.7156 89.8808 48.9522C89.8808 50.3669 89.8808 61.7341 89.8808 63.7132C89.8808 63.949 90.0636 64.1403 90.289 64.1403H94.1282C93.9028 64.1407 93.7202 63.9179 93.7202 63.6434Z" fill="black"/>
<path d="M4.26588 53C4.26588 47.2464 9.24581 42.4791 15.753 41.6228C15.0537 41.5331 14.3322 41.4851 13.5895 41.4851C6.08382 41.4851 0 46.6404 0 53C0 59.3821 6.10804 64.515 13.5895 64.515C14.3185 64.515 15.0336 64.4637 15.7338 64.3743C9.25306 63.512 4.26588 58.7664 4.26588 53Z" fill="black"/>
<path d="M35.0193 52.767C34.3459 52.5954 33.6306 52.501 32.8877 52.501C28.9693 52.501 25.7487 55.0851 25.7487 58.3208C25.7487 61.5352 28.9448 64.1407 32.8877 64.1407C33.6283 64.1407 34.3401 64.0444 35.0115 63.8738C28.3896 62.178 28.3144 54.4773 35.0193 52.767Z" fill="black"/>
<path d="M30.6843 48.5238H34.9502C34.6297 48.5238 34.5355 48.0659 34.8291 47.9309C35.7781 47.4943 37.4122 46.7949 40.1222 45.7633C40.1775 45.7422 40.2301 45.7262 40.2845 45.7068C39.2239 45.1989 37.7803 45.031 35.8566 45.7633C33.1465 46.7949 31.5124 47.4943 30.5634 47.9309C30.2698 48.0659 30.3638 48.5238 30.6843 48.5238Z" fill="black"/>
<path d="M72.2394 57.8684C71.3589 55.0795 71.7637 52.2452 73.041 49.9617C72.9106 49.5104 72.7725 49.0329 72.6255 48.5239C72.7721 47.3051 73.9207 46.1275 75.1254 46.1275C75.5726 46.1275 75.9902 46.2583 76.3469 46.4838C77.1235 46.0049 77.9767 45.6412 78.8893 45.4167C78.2058 45.2484 77.4941 45.1565 76.7616 45.1565C70.4498 45.1565 66.0043 51.6302 67.9735 57.868C69.1901 61.7287 72.6649 64.5143 76.7616 64.5143C77.4949 64.5143 78.2075 64.4224 78.8915 64.2537C75.7567 63.4788 73.2377 61.0362 72.2394 57.8684Z" fill="black"/>
</svg>
