<svg width="83" height="83" viewBox="0 0 83 83" fill="none" xmlns="http://www.w3.org/2000/svg">
<path d="M18.4351 60.9403H16.8529C14.7079 60.9403 12.9623 62.6858 12.9623 64.8309V66.1278C12.9623 66.8449 13.542 67.4246 14.2592 67.4246H40.1889C40.9061 67.4246 41.4858 66.8449 41.4858 66.1278V64.8309C41.4858 62.6858 39.7402 60.9403 37.5951 60.9403H36.013L35.3658 58.3517H50.5535C52.6985 58.3517 54.4441 56.6061 54.4441 54.4611V19.4662C54.4441 17.3212 52.6985 15.5756 50.5535 15.5756H3.89456C1.74953 15.5756 0.00393677 17.3212 0.00393677 19.4662V54.4611C0.00393677 56.6061 1.74953 58.3517 3.89456 58.3517H19.0823L18.4351 60.9403ZM16.8529 63.534H37.5951C38.311 63.534 38.892 64.115 38.892 64.8309H15.5561C15.5561 64.115 16.1371 63.534 16.8529 63.534ZM33.3414 60.9403H21.1067L21.7538 58.3517H32.6943L33.3414 60.9403ZM3.89456 18.1693H50.5548C51.2707 18.1693 51.8517 18.7503 51.8517 19.4662V50.5704H2.59769V19.4662C2.59769 18.7503 3.17869 18.1693 3.89456 18.1693ZM2.59769 54.4611V53.1642H27.25C26.5341 53.1642 25.9609 53.7439 25.9609 54.4611C25.9609 55.1782 26.5471 55.7579 27.2642 55.7579C27.9801 55.7579 28.5611 55.1782 28.5611 54.4611C28.5611 53.7439 27.9801 53.1642 27.2642 53.1642H51.8517V54.4611C51.8517 55.1769 51.2707 55.7579 50.5548 55.7579H27.2629H3.89456C3.17869 55.7579 2.59769 55.1769 2.59769 54.4611Z" fill="black"/>
<path d="M79.1055 15.5756H60.9479C58.8029 15.5756 57.0573 17.3212 57.0573 19.4662V63.534C57.0573 65.679 58.8029 67.4246 60.9479 67.4246H79.1055C81.2505 67.4246 82.9961 65.679 82.9961 63.534V19.4662C82.9961 17.3199 81.2505 15.5756 79.1055 15.5756ZM59.6511 23.3516H80.4024V24.6459H59.6511V23.3516ZM60.9479 18.1693H79.1055C79.8214 18.1693 80.4024 18.7503 80.4024 19.4662V20.7579H59.6511V19.4662C59.6511 18.7503 60.2321 18.1693 60.9479 18.1693ZM79.1055 64.8309H60.9479C60.2321 64.8309 59.6511 64.2499 59.6511 63.534V27.2397H80.4024V63.534C80.4024 64.2499 79.8214 64.8309 79.1055 64.8309Z" fill="black"/>
<path d="M70.0274 42.8021C72.1724 42.8021 73.918 41.0565 73.918 38.9115C73.918 36.7665 72.1724 35.0209 70.0274 35.0209C67.8823 35.0209 66.1367 36.7665 66.1367 38.9115C66.1367 41.0565 67.8823 42.8021 70.0274 42.8021ZM70.0274 37.6146C70.7432 37.6146 71.3242 38.1956 71.3242 38.9115C71.3242 39.6274 70.7432 40.2084 70.0274 40.2084C69.3115 40.2084 68.7305 39.6274 68.7305 38.9115C68.7305 38.1956 69.3115 37.6146 70.0274 37.6146Z" fill="black"/>
<path d="M75.2149 50.5859H64.8399C64.1227 50.5859 63.543 51.1656 63.543 51.8828C63.543 52.6 64.1227 53.1797 64.8399 53.1797H75.2149C75.932 53.1797 76.5117 52.6 76.5117 51.8828C76.5117 51.1656 75.932 50.5859 75.2149 50.5859Z" fill="black"/>
<path d="M75.2149 54.4766H64.8399C64.1227 54.4766 63.543 55.0563 63.543 55.7734C63.543 56.4906 64.1227 57.0703 64.8399 57.0703H75.2149C75.932 57.0703 76.5117 56.4906 76.5117 55.7734C76.5117 55.0563 75.932 54.4766 75.2149 54.4766Z" fill="black"/>
<path d="M75.2149 58.3672H64.8399C64.1227 58.3672 63.543 58.9469 63.543 59.6641C63.543 60.3812 64.1227 60.9609 64.8399 60.9609H75.2149C75.932 60.9609 76.5117 60.3812 76.5117 59.6641C76.5117 58.9469 75.932 58.3672 75.2149 58.3672Z" fill="black"/>
</svg>
