<svg width="86" height="86" viewBox="0 0 86 86" fill="none" xmlns="http://www.w3.org/2000/svg">
<circle cx="43" cy="43" r="43" fill="#F46036"/>
<g clip-path="url(#clip0)">
<path d="M66.4654 25.8346H35.1071L33.0754 19.1133C32.5945 17.5478 30.9431 16.6611 29.3725 17.1249L24.8736 18.4499C24.378 18.5965 23.9287 18.8685 23.569 19.2396L18.5004 24.4893C18.1193 24.8876 17.8563 25.3839 17.7407 25.9229C17.224 28.3079 15.7974 36.954 19.1806 48.1388C22.5637 59.3235 28.5439 65.7842 30.3017 67.497C30.6956 67.8837 31.1887 68.1539 31.7265 68.2779L38.8754 69.9271C39.0964 69.9782 39.3225 70.0039 39.5493 70.0039C39.8376 70.0037 40.1243 69.9624 40.4009 69.8811L42.8901 69.1471L44.8962 68.5553C45.6599 68.3352 46.3025 67.8164 46.6787 67.1163C47.0536 66.428 47.136 65.6179 46.9075 64.8682L45.7883 61.1679H66.4654C68.4168 61.1679 69.9987 59.586 69.9987 57.6346V29.3679C69.9987 27.4165 68.4168 25.8346 66.4654 25.8346ZM52.5529 43.2363L68.1234 28.7796C68.1934 28.968 68.2302 29.167 68.2321 29.3679V57.6346C68.2295 57.8239 68.1964 58.0115 68.134 58.1902L52.5529 43.2363ZM66.4654 27.6013C66.5656 27.6027 66.6655 27.6128 66.764 27.6313L48.2687 44.798C47.5911 45.4264 46.5437 45.4264 45.8661 44.798L33.1461 33.0223L34.0833 32.7458C34.8455 32.5242 35.4868 32.0058 35.8632 31.3069C36.2375 30.619 36.3194 29.8094 36.0902 29.0605L35.6459 27.6013H66.4654ZM30.8971 53.422C29.0734 51.1894 27.7174 48.6129 26.9097 45.8456C25.7688 42.3588 25.6132 38.6245 26.4601 35.0548C26.4783 35.0067 26.5189 34.9704 26.5688 34.9577L31.1683 33.6018L41.5421 43.2018L30.8971 53.422ZM45.1188 66.2754C44.9656 66.5593 44.7045 66.7694 44.3944 66.8584L43.2231 67.2038L41.0722 60.0859C40.9854 59.7784 40.7393 59.5418 40.4287 59.4671C40.1181 59.3924 39.7913 59.4913 39.5742 59.7256C39.357 59.96 39.2834 60.2933 39.3815 60.5973L41.5333 67.7046L39.9027 68.1851C39.6977 68.2461 39.4804 68.2528 39.272 68.2046L32.1232 66.5563C31.9016 66.5045 31.6987 66.3926 31.5366 66.233C29.8583 64.5944 24.1281 58.4084 20.8713 47.6282C17.6144 36.848 18.973 28.5729 19.4668 26.2957C19.5143 26.0772 19.6213 25.876 19.7759 25.7145L24.8392 20.4675C24.9852 20.3161 25.1677 20.2048 25.3692 20.1442L27.0131 19.6601L29.164 26.7771C29.2765 27.1499 29.6199 27.4051 30.0093 27.4052C30.0959 27.4056 30.182 27.3928 30.2646 27.3672C30.7314 27.2261 30.9955 26.7334 30.8547 26.2666L28.7108 19.161L29.8715 18.8192C30.5127 18.6259 31.1899 18.9848 31.39 19.6239L34.3933 29.5702C34.4855 29.8685 34.4537 30.1914 34.305 30.4659C34.1514 30.7496 33.8905 30.9599 33.5807 31.0498L32.4085 31.3952L32.0613 30.2469C31.9113 29.7917 31.4258 29.5392 30.967 29.6778C30.5083 29.8163 30.2436 30.2953 30.3706 30.7574L30.7142 31.8952L26.0697 33.2643C25.4329 33.4504 24.9367 33.951 24.7562 34.5893C23.8244 38.4783 23.9849 42.5491 25.2199 46.3527C26.3045 50.2133 28.4274 53.7024 31.3573 56.4403C31.8555 56.8797 32.5455 57.03 33.1814 56.8378L37.8374 55.4651L38.1846 56.6135C38.2714 56.9209 38.5175 57.1575 38.8281 57.2322C39.1387 57.3069 39.4655 57.2081 39.6826 56.9737C39.8997 56.7394 39.9734 56.4061 39.8753 56.102L39.5317 54.9643L40.6915 54.6224C41.3327 54.4307 42.0092 54.789 42.2108 55.4272L45.2142 65.3744C45.3071 65.6746 45.2742 65.9998 45.1232 66.2754H45.1188ZM45.2539 59.4013L43.9006 54.9219C43.419 53.3535 41.7634 52.4662 40.1906 52.9335L32.6823 55.1471C32.6284 55.1633 32.57 55.1528 32.5251 55.1189C32.4014 55.0102 32.2601 54.8751 32.0967 54.7214L42.8415 44.404L44.6647 46.0921C46.0225 47.3441 48.114 47.3441 49.4718 46.0921L51.2562 44.435L66.809 59.3633C66.696 59.3872 66.5809 59.4 66.4654 59.4013H45.2539Z" fill="#0F316A"/>
<path d="M39.9667 31.1334H54.1C54.5879 31.1334 54.9833 30.7379 54.9833 30.25C54.9833 29.7622 54.5879 29.3667 54.1 29.3667H39.9667C39.4788 29.3667 39.0833 29.7622 39.0833 30.25C39.0833 30.7379 39.4788 31.1334 39.9667 31.1334Z" fill="#0F316A"/>
<path d="M65.5833 36.4333C65.0955 36.4333 64.7 36.8288 64.7 37.3167V49.6834C64.7 50.1712 65.0955 50.5667 65.5833 50.5667C66.0712 50.5667 66.4667 50.1712 66.4667 49.6834V37.3167C66.4667 36.8288 66.0712 36.4333 65.5833 36.4333Z" fill="#0F316A"/>
</g>
<defs>
<clipPath id="clip0">
<rect width="53" height="53" fill="white" transform="translate(17 17)"/>
</clipPath>
</defs>
</svg>
