<svg width="83" height="83" viewBox="0 0 83 83" fill="none" xmlns="http://www.w3.org/2000/svg">
<g clip-path="url(#clip0)">
<path d="M25.2891 35.0209C27.4341 35.0209 29.1797 33.2753 29.1797 31.1302C29.1797 28.9852 27.4341 27.2396 25.2891 27.2396C23.144 27.2396 21.3984 28.9852 21.3984 31.1302C21.3984 33.2753 23.144 35.0209 25.2891 35.0209ZM25.2891 29.8334C26.0049 29.8334 26.5859 30.4157 26.5859 31.1302C26.5859 31.8448 26.0049 32.4271 25.2891 32.4271C24.5732 32.4271 23.9922 31.8448 23.9922 31.1302C23.9922 30.4157 24.5732 29.8334 25.2891 29.8334Z" fill="black"/>
<path d="M35.6641 35.0209C37.8091 35.0209 39.5547 33.2753 39.5547 31.1302C39.5547 28.9852 37.8091 27.2396 35.6641 27.2396C33.519 27.2396 31.7734 28.9852 31.7734 31.1302C31.7734 33.2753 33.519 35.0209 35.6641 35.0209ZM35.6641 29.8334C36.3799 29.8334 36.9609 30.4157 36.9609 31.1302C36.9609 31.8448 36.3799 32.4271 35.6641 32.4271C34.9482 32.4271 34.3672 31.8448 34.3672 31.1302C34.3672 30.4157 34.9482 29.8334 35.6641 29.8334Z" fill="black"/>
<path d="M51.2253 35.0209C53.3703 35.0209 55.1159 33.2753 55.1159 31.1302C55.1159 28.9852 53.3703 27.2396 51.2253 27.2396C49.0802 27.2396 47.3346 28.9852 47.3346 31.1302C47.3346 33.2753 49.0802 35.0209 51.2253 35.0209ZM51.2253 29.8334C51.9411 29.8334 52.5221 30.4157 52.5221 31.1302C52.5221 31.8448 51.9411 32.4271 51.2253 32.4271C50.5094 32.4271 49.9284 31.8448 49.9284 31.1302C49.9284 30.4157 50.5094 29.8334 51.2253 29.8334Z" fill="black"/>
<path d="M57.7096 31.1302C57.7096 33.2753 59.4552 35.0209 61.6003 35.0209C63.7453 35.0209 65.4909 33.2753 65.4909 31.1302C65.4909 28.9852 63.7453 27.2396 61.6003 27.2396C59.4552 27.2396 57.7096 28.9852 57.7096 31.1302ZM62.8971 31.1302C62.8971 31.8448 62.3161 32.4271 61.6003 32.4271C60.8844 32.4271 60.3034 31.8448 60.3034 31.1302C60.3034 30.4157 60.8844 29.8334 61.6003 29.8334C62.3161 29.8334 62.8971 30.4157 62.8971 31.1302Z" fill="black"/>
<path d="M21.3984 37.6146C20.6813 37.6146 20.1016 38.1956 20.1016 38.9115V42.8021C20.1016 43.5193 20.6813 44.099 21.3984 44.099V72.625C21.3984 73.3422 21.9781 73.9219 22.6953 73.9219H64.194C64.9112 73.9219 65.4909 73.3422 65.4909 72.625V44.099C66.2081 44.099 66.7878 43.5193 66.7878 42.8021V38.9115C66.7878 38.1956 66.2081 37.6146 65.4909 37.6146H21.3984ZM22.6953 40.2084H64.194V41.5052H22.6953V40.2084ZM62.8971 71.3282H23.9922V44.099H62.8971V71.3282Z" fill="black"/>
<path d="M13.6172 16.862H21.5839C21.7162 17.3652 21.9159 17.8372 22.1818 18.2691C21.7227 18.4675 21.3984 18.924 21.3984 19.4583V22.0521H20.1003C17.9552 22.0521 16.2096 23.7977 16.2096 25.9427V75.2175C16.2096 77.3625 17.9552 79.1081 20.1003 79.1081H20.1042V81.7031C20.1042 82.4203 20.6839 83 21.401 83H34.3698C35.087 83 35.6667 82.4203 35.6667 81.7031V79.1081H51.2227V81.7031C51.2227 82.4203 51.8024 83 52.5196 83H65.4883C66.2055 83 66.7852 82.4203 66.7852 81.7031V79.1081H66.7891C68.9341 79.1081 70.6797 77.3625 70.6797 75.2175V25.9427C70.6797 23.7977 68.9341 22.0521 66.7891 22.0521H65.4909V19.4583C65.4909 18.9253 65.168 18.4701 64.7089 18.2704C65.1952 17.4806 65.4909 16.5598 65.4909 15.5651V7.78384H66.7878C67.5049 7.78384 68.0846 7.20284 68.0846 6.48697C68.0846 5.77109 67.5049 5.19009 66.7878 5.19009H65.3067C64.727 2.95817 62.7117 1.29688 60.3008 1.29688C60.2969 1.29688 60.2917 1.29947 60.2878 1.29947H56.4128V1.29688C56.4128 0.581 55.8331 0 55.1159 0C54.3987 0 53.819 0.581 53.819 1.29688V1.29947H49.9284C47.5188 1.29947 45.5047 2.95947 44.925 5.19009H43.444C42.7268 5.19009 42.1471 5.77109 42.1471 6.48697C42.1471 7.20284 42.7268 7.78384 43.444 7.78384H44.7409V15.5651C44.7409 16.5598 45.0366 17.4806 45.5229 18.2704C45.0638 18.4701 44.7409 18.9253 44.7409 19.4583V22.0521H42.1484V19.4583C42.1484 18.9253 41.8255 18.4688 41.3651 18.2691C41.8515 17.4793 42.1471 16.5598 42.1471 15.5651C42.1471 14.8492 41.5674 14.2682 40.8503 14.2682H13.6172C12.9 14.2682 12.3203 14.8492 12.3203 15.5651C12.3203 16.281 12.9 16.862 13.6172 16.862ZM36.9596 18.1588C36.9558 18.1588 36.9506 18.1614 36.9467 18.1614H26.5989C26.595 18.1614 26.5898 18.1588 26.5859 18.1588C25.6301 18.1588 24.8027 17.6336 24.3527 16.862H39.1903C38.7428 17.6336 37.9154 18.1588 36.9596 18.1588ZM33.0729 80.4062H22.6979V79.1081H33.0729V80.4062ZM64.1914 80.4062H53.8164V79.1081H64.1914V80.4062ZM68.0859 25.9427V75.2175C68.0859 75.9333 67.5049 76.5143 66.7891 76.5143H20.1003C19.3844 76.5143 18.8034 75.9333 18.8034 75.2175V25.9427C18.8034 25.2281 19.3844 24.6458 20.1003 24.6458H66.7891C67.5049 24.6458 68.0859 25.2281 68.0859 25.9427ZM49.9414 18.1614C49.9375 18.1614 49.9323 18.1588 49.9284 18.1588C48.4979 18.1588 47.3346 16.9955 47.3346 15.5651V7.78384H62.8971V15.5651C62.8971 16.9968 61.7325 18.1614 60.3008 18.1614H49.9414ZM49.9284 3.89322H60.3008C60.3034 3.89322 60.306 3.89062 60.3099 3.89062C61.2618 3.89322 62.0879 4.41845 62.5366 5.1888H47.6952C48.1452 4.41845 48.9726 3.89322 49.9284 3.89322ZM47.3346 20.7552H62.8971V22.0521H47.3346V20.7552ZM23.9922 22.0521V20.7552H39.5547V22.0521H23.9922Z" fill="black"/>
<path d="M24.5667 10.5929C24.0311 10.9508 23.834 11.6602 24.1284 12.2516C24.3566 12.7055 24.8131 12.9687 25.2904 12.9674C25.4849 12.9674 25.6833 12.9233 25.8701 12.83C26.0231 12.7522 26.8038 12.3164 27.0749 11.2958C27.3122 10.4035 27.0736 9.41401 26.3681 8.35576C26.0672 7.90444 26.0179 7.65285 26.0114 7.56077C26.547 7.20284 26.7442 6.49474 26.4498 5.90466C26.1307 5.26401 25.3552 5.00463 24.7107 5.32237C24.5563 5.40018 23.7756 5.83463 23.5033 6.85527C23.2659 7.74752 23.5046 8.73704 24.2101 9.79529C24.5122 10.2492 24.5602 10.5021 24.5667 10.5929Z" fill="black"/>
<path d="M31.0485 10.5929C30.5129 10.9508 30.3157 11.6602 30.6101 12.2516C30.8384 12.7055 31.2949 12.9687 31.7721 12.9674C31.9667 12.9674 32.1651 12.9233 32.3518 12.83C32.5049 12.7522 33.2856 12.3164 33.5566 11.2958C33.794 10.4035 33.5553 9.41401 32.8498 8.35576C32.549 7.90444 32.4984 7.65285 32.4932 7.56077C33.0288 7.20284 33.2259 6.49474 32.9315 5.90466C32.6125 5.26401 31.8383 5.00463 31.1924 5.32237C31.0381 5.40018 30.2574 5.83463 29.985 6.85527C29.7477 7.74752 29.9863 8.73704 30.6918 9.79529C30.994 10.2492 31.0433 10.5021 31.0485 10.5929Z" fill="black"/>
<path d="M37.5303 10.5929C36.9947 10.9508 36.7975 11.6602 37.0919 12.2516C37.3202 12.7055 37.7767 12.9687 38.2539 12.9674C38.4485 12.9674 38.6469 12.9233 38.8336 12.83C38.9867 12.7522 39.7674 12.3164 40.0384 11.2958C40.2757 10.4035 40.0371 9.41401 39.3316 8.35576C39.0307 7.90444 38.9802 7.65285 38.975 7.56077C39.5106 7.20284 39.7077 6.49474 39.4133 5.90466C39.0943 5.26401 38.3188 5.00463 37.6742 5.32237C37.5199 5.40018 36.7392 5.83463 36.4668 6.85527C36.2295 7.74752 36.4681 8.73704 37.1736 9.79529C37.4758 10.2492 37.5251 10.5021 37.5303 10.5929Z" fill="black"/>
</g>
<defs>
<clipPath id="clip0">
<rect width="83" height="83" fill="white"/>
</clipPath>
</defs>
</svg>
