<svg width="21" height="21" viewBox="0 0 21 21" fill="none" xmlns="http://www.w3.org/2000/svg">
<path d="M10.5 21C4.7104 21 0 16.2896 0 10.5C0 4.7104 4.7104 0 10.5 0C16.2896 0 21 4.7104 21 10.5C21 16.2896 16.2896 21 10.5 21ZM10.5 1.31251C5.43392 1.31251 1.31251 5.43392 1.31251 10.5C1.31251 15.5661 5.43392 19.6875 10.5 19.6875C15.5661 19.6875 19.6875 15.5661 19.6875 10.5C19.6875 5.43392 15.5661 1.31251 10.5 1.31251Z" fill="white"/>
<path d="M10.5 15.75C7.60523 15.75 5.25 13.3949 5.25 10.5C5.25 7.60518 7.60518 5.25 10.5 5.25C11.9234 5.25 13.2551 5.81013 14.251 6.82718L13.3128 7.74488C12.5662 6.98223 11.5678 6.56246 10.5 6.56246C8.32875 6.56246 6.56251 8.3287 6.56251 10.5C6.56251 12.6713 8.32875 14.4375 10.5 14.4375C11.5671 14.4375 12.5656 14.0177 13.3128 13.2551L14.2498 14.1741C13.2545 15.1905 11.9228 15.75 10.5 15.75Z" fill="white"/>
</svg>
