<svg width="83" height="83" viewBox="0 0 83 83" fill="none" xmlns="http://www.w3.org/2000/svg">
<path d="M74.7 0H8.29999C6.01198 0 4.14999 1.86199 4.14999 4.15V73.3167C4.14999 75.6047 6.01198 77.4667 8.29999 77.4667H74.7C76.988 77.4667 78.85 75.6047 78.85 73.3167V4.15C78.85 1.86199 76.988 0 74.7 0ZM76.0833 73.3167C76.0833 74.0803 75.4635 74.7 74.7 74.7H8.29999C7.53776 74.7 6.91671 74.0803 6.91671 73.3167V4.15C6.91671 3.38776 7.53776 2.76672 8.29999 2.76672H74.7C75.4635 2.76672 76.0833 3.38776 76.0833 4.15V73.3167Z" fill="black"/>
<path d="M51.1833 23.5167C38.9795 23.5167 29.05 33.4462 29.05 45.65C29.05 57.8538 38.9795 67.7833 51.1833 67.7833C63.387 67.7833 73.3167 57.8538 73.3167 45.65C73.3167 33.4462 63.387 23.5167 51.1833 23.5167ZM51.1833 65.0167C40.504 65.0167 31.8166 56.3294 31.8166 45.65C31.8166 34.9706 40.5038 26.2833 51.1833 26.2833C61.8627 26.2833 70.55 34.9707 70.55 45.65C70.55 56.3293 61.8627 65.0167 51.1833 65.0167Z" fill="black"/>
<path d="M20.75 74.7H9.68328C8.91975 74.7 8.3 75.3197 8.3 76.0832V80.2332C8.3 81.7618 9.53803 82.9999 11.0667 82.9999H19.3667C20.8953 82.9999 22.1334 81.7619 22.1334 80.2332V76.0832C22.1333 75.3197 21.5135 74.7 20.75 74.7ZM19.3667 80.2332H11.0667V77.4665H19.3667V80.2332Z" fill="black"/>
<path d="M73.3167 74.7H62.25C61.4865 74.7 60.8667 75.3197 60.8667 76.0832V80.2332C60.8667 81.7618 62.1048 82.9999 63.6334 82.9999H71.9334C73.462 82.9999 74.7002 81.7619 74.7002 80.2332V76.0832C74.7 75.3197 74.0803 74.7 73.3167 74.7ZM71.9333 80.2332H63.6333V77.4665H71.9333V80.2332Z" fill="black"/>
<path d="M77.4667 65.0167H5.53327C4.76974 65.0167 4.14999 65.6365 4.14999 66.4C4.14999 67.1635 4.76974 67.7833 5.53327 67.7833H77.4665C78.2301 67.7833 78.8498 67.1635 78.8498 66.4C78.8498 65.6365 78.2302 65.0167 77.4667 65.0167Z" fill="black"/>
<path d="M77.4667 17.9833H5.53327C4.76974 17.9833 4.14999 18.603 4.14999 19.3666C4.14999 20.1301 4.76974 20.75 5.53327 20.75H77.4665C78.2301 20.75 78.8498 20.1303 78.8498 19.3667C78.8498 18.6032 78.2302 17.9833 77.4667 17.9833Z" fill="black"/>
<path d="M67.0917 5.5332C64.4177 5.5332 62.25 7.70093 62.25 10.3749C62.25 13.0489 64.4177 15.2166 67.0917 15.2166C69.7657 15.2166 71.9333 13.0489 71.9333 10.3749C71.9333 7.70093 69.7657 5.5332 67.0917 5.5332ZM67.0917 12.4499C65.9463 12.4499 65.0167 11.5204 65.0167 10.3749C65.0167 9.22946 65.9463 8.29992 67.0917 8.29992C68.2372 8.29992 69.1667 9.22946 69.1667 10.3749C69.1667 11.5204 68.237 12.4499 67.0917 12.4499Z" fill="black"/>
<path d="M11.0667 5.5332C10.3032 5.5332 9.68344 6.15295 9.68344 6.91648V13.8332C9.68344 14.5967 10.3032 15.2165 11.0667 15.2165C11.8303 15.2165 12.45 14.5967 12.45 13.8332V6.91664C12.45 6.15295 11.8303 5.5332 11.0667 5.5332Z" fill="black"/>
<path d="M16.6 5.5332C15.8365 5.5332 15.2167 6.15295 15.2167 6.91648V13.8332C15.2167 14.5967 15.8365 15.2165 16.6 15.2165C17.3635 15.2165 17.9833 14.5967 17.9833 13.8332V6.91664C17.9833 6.15295 17.3635 5.5332 16.6 5.5332Z" fill="black"/>
<path d="M22.1333 5.5332C21.3697 5.5332 20.75 6.15295 20.75 6.91648V13.8332C20.75 14.5967 21.3697 15.2165 22.1333 15.2165C22.8968 15.2165 23.5166 14.5967 23.5166 13.8332V6.91664C23.5167 6.15295 22.897 5.5332 22.1333 5.5332Z" fill="black"/>
<path d="M27.6667 5.5332C26.9032 5.5332 26.2834 6.15295 26.2834 6.91648V13.8332C26.2834 14.5967 26.9032 15.2165 27.6667 15.2165C28.4303 15.2165 29.05 14.5967 29.05 13.8332V6.91664C29.05 6.15295 28.4303 5.5332 27.6667 5.5332Z" fill="black"/>
<path d="M42.1225 62.7757C40.3573 61.8392 38.7472 60.6357 37.35 59.2067C36.0385 57.8677 34.9292 56.346 34.055 54.6887C29.0652 45.2282 32.6897 33.514 42.1502 28.5244C42.3978 28.3944 42.5998 28.1924 42.7299 27.9449C43.0869 27.2684 42.8267 26.4315 42.1502 26.0759C38.9657 24.3952 35.4202 23.5167 31.8209 23.5167C19.5977 23.5153 9.68604 33.424 9.68604 45.6472C9.68458 57.8717 19.5921 67.782 31.8166 67.7833C35.4078 67.7736 38.9435 66.8965 42.1223 65.2241C42.3699 65.0941 42.5719 64.8921 42.7019 64.6445C43.059 63.968 42.799 63.1312 42.1225 62.7757ZM31.8208 65.0167C21.1248 65.018 12.4541 56.3487 12.4528 45.6528C12.4515 34.9568 21.1207 26.2847 31.8167 26.2833C34.1158 26.2778 36.3983 26.6858 38.5535 27.4868C37.4205 28.2753 36.3637 29.169 35.3995 30.1566C34.5363 31.0363 33.7478 31.9868 33.0423 32.9979C26.051 43.0256 28.5118 56.8216 38.5396 63.8131C36.3885 64.6085 34.1145 65.0167 31.8208 65.0167Z" fill="black"/>
<path d="M37.35 32.0933C37.5063 31.9356 37.624 31.742 37.6903 31.5303C37.9185 30.8013 37.5118 30.0253 36.7828 29.797C35.174 29.3018 33.5001 29.05 31.8166 29.05C22.6493 29.05 15.2166 36.4828 15.2166 45.6501C15.2166 54.8173 22.6493 62.2501 31.8166 62.2501C33.4959 62.2488 35.1643 61.9968 36.7688 61.5031C36.9833 61.4381 37.1796 61.3205 37.3388 61.1628C37.8825 60.626 37.8866 59.7503 37.3498 59.2068C29.9685 51.6758 29.9685 39.6243 37.35 32.0933ZM31.8692 59.4833C24.2305 59.4971 18.0248 53.3164 18.0097 45.6763C17.9959 38.0376 24.1767 31.8318 31.8167 31.8168C32.4793 31.821 33.1405 31.8708 33.7935 31.969C27.473 40.0007 27.473 51.3135 33.7935 59.3452C33.1557 59.4363 32.5125 59.482 31.8692 59.4833Z" fill="black"/>
<path d="M51.1833 23.5167C38.9795 23.5167 29.05 33.4462 29.05 45.65C29.05 57.8538 38.9795 67.7833 51.1833 67.7833C63.387 67.7833 73.3167 57.8538 73.3167 45.65C73.3167 33.4462 63.387 23.5167 51.1833 23.5167ZM51.1833 65.0167C40.504 65.0167 31.8166 56.3294 31.8166 45.65C31.8166 34.9706 40.5038 26.2833 51.1833 26.2833C61.8627 26.2833 70.55 34.9707 70.55 45.65C70.55 56.3293 61.8627 65.0167 51.1833 65.0167Z" fill="black"/>
<path d="M51.182 29.05C49.4957 29.0515 47.8232 29.3046 46.2062 29.804C41.0062 31.428 36.9324 35.502 35.3082 40.702C33.9872 44.935 34.3925 49.428 36.4509 53.3553C38.5094 57.284 41.9732 60.1737 46.2104 61.4962C47.8234 61.9942 49.4959 62.2487 51.1834 62.2502C60.337 62.2502 67.7834 54.8037 67.7834 45.6502C67.7833 36.4965 60.3368 29.05 51.182 29.05ZM51.1833 59.4833C49.7723 59.4819 48.3751 59.2703 47.0291 58.8553C43.503 57.7528 40.6159 55.3443 38.9006 52.0728C37.1853 48.7985 36.8478 45.0538 37.9488 41.5263C39.3018 37.1938 42.6978 33.799 47.0263 32.4475C48.3765 32.0298 49.7736 31.8181 51.1833 31.8168C58.811 31.8168 65.0166 38.0225 65.0166 45.65C65.0166 53.2776 58.8125 59.482 51.1833 59.4833Z" fill="black"/>
<path d="M51.1833 29.05C49.4998 29.0556 47.826 29.3115 46.2171 29.8108C41.0143 31.4348 36.9404 35.5088 35.3163 40.7116C32.5856 49.4625 37.4661 58.771 46.2171 61.5031C47.8258 61.9983 49.4998 62.2501 51.1833 62.2501C60.3506 62.2501 67.7833 54.8173 67.7833 45.6501C67.7833 36.4828 60.3507 29.05 51.1833 29.05ZM51.1833 59.4833C49.7765 59.4833 48.3778 59.2744 47.0333 58.8608C42.7007 57.5066 39.3073 54.1146 37.9545 49.7821C35.6762 42.4905 39.7405 34.7313 47.0333 32.4531C48.3765 32.0353 49.7765 31.8208 51.1833 31.8168C58.8235 31.8168 65.0166 38.01 65.0166 45.6501C65.0167 53.2903 58.8235 59.4833 51.1833 59.4833Z" fill="black"/>
<path d="M77.4667 45.65H5.53327C4.76974 45.65 4.14999 46.2698 4.14999 47.0333C4.14999 47.7968 4.76974 48.4166 5.53327 48.4166H77.4665C78.2301 48.4166 78.8498 47.7968 78.8498 47.0333C78.8498 46.2698 78.2302 45.65 77.4667 45.65Z" fill="black"/>
</svg>
