<svg width="72" height="50" viewBox="0 0 72 50" fill="none" xmlns="http://www.w3.org/2000/svg">
<path d="M70.4375 38.9375H69.25V25.875C69.2469 23.0415 68.1198 20.3249 66.1162 18.3213C64.1126 16.3177 61.396 15.1906 58.5625 15.1875H50.25V2.125C50.25 1.81006 50.1249 1.50801 49.9022 1.28531C49.6795 1.06261 49.3774 0.9375 49.0625 0.9375H1.5625C1.24756 0.9375 0.94551 1.06261 0.722811 1.28531C0.500111 1.50801 0.375 1.81006 0.375 2.125V40.125C0.375 40.4399 0.500111 40.742 0.722811 40.9647C0.94551 41.1874 1.24756 41.3125 1.5625 41.3125H2.75V42.5C2.75 43.4448 3.12533 44.351 3.79343 45.0191C4.46153 45.6872 5.36767 46.0625 6.3125 46.0625H12.0268C12.65 47.1453 13.5476 48.0448 14.6292 48.6702C15.7108 49.2956 16.9381 49.6249 18.1875 49.6249C19.4369 49.6249 20.6642 49.2956 21.7458 48.6702C22.8274 48.0448 23.725 47.1453 24.3482 46.0625H52.4018C53.025 47.1453 53.9226 48.0448 55.0042 48.6702C56.0858 49.2956 57.3131 49.6249 58.5625 49.6249C59.8119 49.6249 61.0392 49.2956 62.1208 48.6702C63.2024 48.0448 64.1 47.1453 64.7232 46.0625H68.0625C69.0073 46.0625 69.9135 45.6872 70.5816 45.0191C71.2497 44.351 71.625 43.4448 71.625 42.5V40.125C71.625 39.8101 71.4999 39.508 71.2772 39.2853C71.0545 39.0626 70.7524 38.9375 70.4375 38.9375ZM66.875 25.875V28.25H56.1875C55.8726 28.25 55.5705 28.1249 55.3478 27.9022C55.1251 27.6795 55 27.3774 55 27.0625V17.5625H58.5625C60.7663 17.565 62.8792 18.4416 64.4376 19.9999C65.9959 21.5583 66.8725 23.6712 66.875 25.875V25.875ZM52.625 17.5625V27.0625C52.625 28.0073 53.0003 28.9135 53.6684 29.5816C54.3365 30.2497 55.2427 30.625 56.1875 30.625H66.875V38.9375H64.7232C64.1 37.8547 63.2024 36.9552 62.1208 36.3298C61.0392 35.7044 59.8119 35.3751 58.5625 35.3751C57.3131 35.3751 56.0858 35.7044 55.0042 36.3298C53.9226 36.9552 53.025 37.8547 52.4018 38.9375H50.25V17.5625H52.625ZM24.3482 38.9375C23.725 37.8547 22.8274 36.9552 21.7458 36.3298C20.6642 35.7044 19.4369 35.3751 18.1875 35.3751C16.9381 35.3751 15.7108 35.7044 14.6292 36.3298C13.5476 36.9552 12.65 37.8547 12.0268 38.9375H2.75V34.1875H47.875V38.9375H24.3482ZM2.75 3.3125H47.875V31.8125H2.75V3.3125ZM6.3125 43.6875C5.99756 43.6875 5.69551 43.5624 5.47281 43.3397C5.25011 43.117 5.125 42.8149 5.125 42.5V41.3125H11.1694C11.0269 42.0978 11.0269 42.9022 11.1694 43.6875H6.3125ZM18.1875 47.25C17.248 47.25 16.3297 46.9714 15.5485 46.4495C14.7674 45.9275 14.1586 45.1857 13.7991 44.3177C13.4396 43.4498 13.3455 42.4947 13.5288 41.5733C13.712 40.6519 14.1644 39.8055 14.8287 39.1412C15.493 38.4769 16.3394 38.0245 17.2608 37.8413C18.1822 37.658 19.1373 37.7521 20.0052 38.1116C20.8732 38.4711 21.615 39.0799 22.137 39.861C22.6589 40.6422 22.9375 41.5605 22.9375 42.5C22.9375 43.7598 22.4371 44.968 21.5463 45.8588C20.6555 46.7496 19.4473 47.25 18.1875 47.25ZM25.2056 43.6875C25.3481 42.9022 25.3481 42.0978 25.2056 41.3125H51.5444C51.4019 42.0978 51.4019 42.9022 51.5444 43.6875H25.2056ZM58.5625 47.25C57.623 47.25 56.7047 46.9714 55.9235 46.4495C55.1424 45.9275 54.5336 45.1857 54.1741 44.3177C53.8146 43.4498 53.7205 42.4947 53.9038 41.5733C54.087 40.6519 54.5394 39.8055 55.2037 39.1412C55.868 38.4769 56.7144 38.0245 57.6358 37.8413C58.5572 37.658 59.5123 37.7521 60.3802 38.1116C61.2482 38.4711 61.99 39.0799 62.512 39.861C63.0339 40.6422 63.3125 41.5605 63.3125 42.5C63.3125 43.7598 62.8121 44.968 61.9213 45.8588C61.0305 46.7496 59.8223 47.25 58.5625 47.25ZM69.25 42.5C69.25 42.8149 69.1249 43.117 68.9022 43.3397C68.6795 43.5624 68.3774 43.6875 68.0625 43.6875H65.5806C65.7231 42.9022 65.7231 42.0978 65.5806 41.3125H69.25V42.5Z" fill="#F46036"/>
<path d="M9.875 21.125C10.1899 21.125 10.492 20.9999 10.7147 20.7772C10.9374 20.5545 11.0625 20.2524 11.0625 19.9375V16.375H13.4375C13.7524 16.375 14.0545 16.2499 14.2772 16.0272C14.4999 15.8045 14.625 15.5024 14.625 15.1875C14.625 14.8726 14.4999 14.5705 14.2772 14.3478C14.0545 14.1251 13.7524 14 13.4375 14H11.0625V11.625H14.625C14.9399 11.625 15.242 11.4999 15.4647 11.2772C15.6874 11.0545 15.8125 10.7524 15.8125 10.4375C15.8125 10.1226 15.6874 9.82051 15.4647 9.59781C15.242 9.37511 14.9399 9.25 14.625 9.25H9.875C9.56006 9.25 9.25801 9.37511 9.03531 9.59781C8.81261 9.82051 8.6875 10.1226 8.6875 10.4375V19.9375C8.6875 20.2524 8.81261 20.5545 9.03531 20.7772C9.25801 20.9999 9.56006 21.125 9.875 21.125Z" fill="#F46036"/>
<path d="M18.1875 21.125C18.5024 21.125 18.8045 20.9999 19.0272 20.7772C19.2499 20.5545 19.375 20.2525 19.375 19.9375V17.1671L21.9875 20.65C22.1765 20.902 22.4578 21.0685 22.7696 21.1131C23.0813 21.1576 23.398 21.0765 23.65 20.8875C23.902 20.6985 24.0685 20.4172 24.1131 20.1055C24.1576 19.7937 24.0765 19.477 23.8875 19.225L21.617 16.1981C22.4303 15.9471 23.1265 15.4126 23.5789 14.6917C24.0314 13.9707 24.21 13.1114 24.0822 12.2699C23.9545 11.4284 23.529 10.6607 22.883 10.1065C22.2371 9.55226 21.4136 9.24834 20.5625 9.25001H18.1875C17.8726 9.25001 17.5705 9.37512 17.3478 9.59782C17.1251 9.82052 17 10.1226 17 10.4375V19.9375C17 20.2525 17.1251 20.5545 17.3478 20.7772C17.5705 20.9999 17.8726 21.125 18.1875 21.125ZM21.75 12.8125C21.75 13.1275 21.6249 13.4295 21.4022 13.6522C21.1795 13.8749 20.8774 14 20.5625 14H19.375V11.625H20.5625C20.8774 11.625 21.1795 11.7501 21.4022 11.9728C21.6249 12.1955 21.75 12.4976 21.75 12.8125Z" fill="#F46036"/>
<path d="M27.6875 21.125H32.4375C32.7524 21.125 33.0545 20.9999 33.2772 20.7772C33.4999 20.5545 33.625 20.2524 33.625 19.9375C33.625 19.6226 33.4999 19.3205 33.2772 19.0978C33.0545 18.8751 32.7524 18.75 32.4375 18.75H28.875V16.375H31.25C31.5649 16.375 31.867 16.2499 32.0897 16.0272C32.3124 15.8045 32.4375 15.5024 32.4375 15.1875C32.4375 14.8726 32.3124 14.5705 32.0897 14.3478C31.867 14.1251 31.5649 14 31.25 14H28.875V11.625H32.4375C32.7524 11.625 33.0545 11.4999 33.2772 11.2772C33.4999 11.0545 33.625 10.7524 33.625 10.4375C33.625 10.1226 33.4999 9.82051 33.2772 9.59781C33.0545 9.37511 32.7524 9.25 32.4375 9.25H27.6875C27.3726 9.25 27.0705 9.37511 26.8478 9.59781C26.6251 9.82051 26.5 10.1226 26.5 10.4375V19.9375C26.5 20.2524 26.6251 20.5545 26.8478 20.7772C27.0705 20.9999 27.3726 21.125 27.6875 21.125Z" fill="#F46036"/>
<path d="M36 21.125H40.75C41.0649 21.125 41.367 20.9999 41.5897 20.7772C41.8124 20.5545 41.9375 20.2524 41.9375 19.9375C41.9375 19.6226 41.8124 19.3205 41.5897 19.0978C41.367 18.8751 41.0649 18.75 40.75 18.75H37.1875V16.375H39.5625C39.8774 16.375 40.1795 16.2499 40.4022 16.0272C40.6249 15.8045 40.75 15.5024 40.75 15.1875C40.75 14.8726 40.6249 14.5705 40.4022 14.3478C40.1795 14.1251 39.8774 14 39.5625 14H37.1875V11.625H40.75C41.0649 11.625 41.367 11.4999 41.5897 11.2772C41.8124 11.0545 41.9375 10.7524 41.9375 10.4375C41.9375 10.1226 41.8124 9.82051 41.5897 9.59781C41.367 9.37511 41.0649 9.25 40.75 9.25H36C35.6851 9.25 35.383 9.37511 35.1603 9.59781C34.9376 9.82051 34.8125 10.1226 34.8125 10.4375V19.9375C34.8125 20.2524 34.9376 20.5545 35.1603 20.7772C35.383 20.9999 35.6851 21.125 36 21.125Z" fill="#F46036"/>
<path d="M44.3125 23.5H6.3125C5.99756 23.5 5.69551 23.6251 5.47281 23.8478C5.25011 24.0705 5.125 24.3726 5.125 24.6875C5.125 25.0024 5.25011 25.3045 5.47281 25.5272C5.69551 25.7499 5.99756 25.875 6.3125 25.875H44.3125C44.6274 25.875 44.9295 25.7499 45.1522 25.5272C45.3749 25.3045 45.5 25.0024 45.5 24.6875C45.5 24.3726 45.3749 24.0705 45.1522 23.8478C44.9295 23.6251 44.6274 23.5 44.3125 23.5Z" fill="#F46036"/>
</svg>
