<svg width="137" height="137" viewBox="0 0 137 137" fill="none" xmlns="http://www.w3.org/2000/svg">
<path fill-rule="evenodd" clip-rule="evenodd" d="M100.917 58.4957V54.76H105.319V58.4957H100.917ZM99.0748 82.0354V78.658H99.8936C100.252 78.658 100.559 78.6068 100.764 78.4021C100.815 78.1974 100.917 78.0439 100.917 77.5322V60.2867H105.319V78.1967C105.319 79.6303 104.96 80.6531 104.142 81.216C103.271 81.8819 101.89 82.0347 99.8936 82.0347H99.0748V82.0354ZM82.3425 75.7923V60.2867H86.6418V62.1802C87.204 61.4126 87.9716 60.8497 88.8423 60.3891C89.661 59.9797 90.5814 59.8262 91.6561 59.8262C93.3953 59.8262 94.8296 60.3891 95.6988 61.1055C96.6206 62.0778 96.9789 63.4595 96.9789 65.2506V75.7923H92.5786V66.3764C92.5786 65.3529 92.4756 64.483 92.015 64.0224C91.6568 63.5626 90.9923 63.306 90.02 63.306C89.0981 63.306 88.2794 63.5618 87.6141 64.1247C87.0505 64.79 86.7434 65.5576 86.7434 66.5811V75.7916H82.3425V75.7923ZM52.7138 75.7923V60.2867H56.8076V62.8966C57.3705 61.8738 58.0358 61.0543 58.8034 60.5426C59.5198 60.082 60.4921 59.8262 61.5156 59.8262H62.1809V64.1247H60.7473C59.5191 64.1247 58.598 64.3294 58.0351 64.8924C57.3698 65.5576 57.114 66.3764 57.114 67.6045V75.7923H52.7138ZM22.112 75.6899C22.7772 75.5869 23.3913 75.4853 23.9031 75.2294C24.6195 74.9223 25.1824 74.2571 25.643 73.5918V74.9223C25.643 76.4064 25.3871 77.481 24.8242 78.0439C24.3636 78.5045 23.3913 78.7604 22.112 78.7604H22.0096C21.242 78.7604 20.6791 78.658 20.2186 78.4021C19.758 78.0951 19.5533 77.7369 19.3998 77.2763H14.4871C14.5895 78.7603 15.3571 79.9885 16.5852 80.8585C17.7622 81.6772 19.5533 82.0354 21.7026 82.0354H22.112C23.3402 82.0354 24.3636 81.9843 25.2847 81.7796C26.3082 81.4725 27.1782 81.1143 27.8434 80.6538C28.5599 79.9885 29.1228 79.3233 29.4298 78.5052C29.6857 77.5329 29.8904 76.3559 29.8904 74.7184V60.2867H25.7453V62.1802C25.3374 61.4024 24.692 60.7749 23.9031 60.3891C23.3913 60.0821 22.7772 59.8262 22.112 59.7238H20.9862C18.8881 59.7238 17.1482 60.3891 15.9207 61.9755C14.6918 63.4595 14.0273 65.4553 14.0273 67.9628C14.0273 70.3167 14.6925 72.2109 16.0231 73.6935C17.2 75.024 18.9911 75.7916 21.0892 75.7916C21.4467 75.7923 21.7033 75.7923 22.112 75.6899ZM22.112 63.306C23.2378 63.306 24.0566 63.6642 24.7218 64.4318C25.2847 65.2506 25.643 66.274 25.643 67.7069C25.643 69.1909 25.2847 70.3167 24.7218 71.1867C24.0566 71.9031 23.3402 72.3125 22.112 72.3125C20.8838 72.3125 20.1162 71.9031 19.451 71.1867C18.8369 70.3167 18.5298 69.1909 18.5298 67.8092C18.5298 66.3764 18.8369 65.2506 19.451 64.4318C20.0146 63.6642 20.8838 63.306 22.112 63.306ZM41.3532 76.2529C43.8607 76.2529 45.9581 75.5869 47.4422 74.1036C48.9262 72.5691 49.6938 70.5214 49.6938 67.9628C49.6938 65.4553 48.9262 63.3579 47.4422 61.8738C45.9581 60.3898 43.86 59.7245 41.3532 59.7245C38.6922 59.7245 36.7476 60.3898 35.2124 61.8738C33.7284 63.3579 32.9608 65.456 32.9608 67.9628C32.9608 70.5214 33.7284 72.5684 35.2124 74.1036C36.7476 75.5876 38.6922 76.2529 41.3532 76.2529ZM41.3532 63.2036C42.5814 63.2036 43.6049 63.5618 44.2701 64.4318C44.8842 65.3529 45.1912 66.4787 45.1912 67.9628C45.1912 69.6003 44.8842 70.7261 44.2701 71.5449C43.5025 72.4148 42.5814 72.8754 41.3532 72.8754C40.1244 72.8754 39.1528 72.4148 38.5387 71.5449C37.8734 70.7261 37.464 69.6003 37.464 67.9628C37.464 66.4787 37.8734 65.3529 38.5387 64.4318C39.1528 63.5626 40.1251 63.2036 41.3532 63.2036ZM74.7681 71.085C74.4611 71.6472 74.1029 72.1078 73.6423 72.4148C73.1313 72.6707 72.5165 72.7731 71.7489 72.7731H71.5449C70.6231 72.7731 69.7538 72.4148 69.2933 71.8519C68.7304 71.1867 68.3721 70.3174 68.3721 69.0886H79.3226V68.6287V67.9628C79.3226 65.4553 78.7092 63.306 77.2763 61.8738C75.9451 60.3898 74.1029 59.7245 71.5449 59.7245C69.0381 59.7245 67.2463 60.3898 65.8135 61.8738C64.5341 63.3579 63.8689 65.456 63.8689 67.9628C63.8689 70.5214 64.5341 72.466 65.8135 74.1036C67.2463 75.5876 69.139 76.2529 71.5449 76.2529C73.4383 76.2529 75.1263 75.8435 76.5087 74.9223C77.8385 74.0012 78.7092 72.6707 79.1697 71.085H74.7681ZM71.5449 63.2036C70.6231 63.2036 69.8555 63.4595 69.2933 64.0224C68.7304 64.5853 68.3721 65.3529 68.3721 66.3764H74.7681C74.7681 65.3529 74.4611 64.5853 74.0005 64.0224C73.4383 63.4595 72.5684 63.2036 71.5449 63.2036ZM119.379 71.085C119.072 71.6472 118.713 72.1078 118.253 72.4148C117.74 72.6707 117.127 72.7731 116.359 72.7731H116.154C115.234 72.7731 114.363 72.4148 113.902 71.8519C113.34 71.1867 112.982 70.3174 112.982 69.0886H123.933V68.6287V67.9628C123.933 65.4553 123.318 63.306 121.885 61.8738C120.556 60.3898 118.713 59.7245 116.154 59.7245C113.647 59.7245 111.856 60.3898 110.424 61.8738C109.144 63.3579 108.479 65.456 108.479 67.9628C108.479 70.5214 109.145 72.466 110.424 74.1036C111.857 75.5876 113.75 76.2529 116.154 76.2529C118.047 76.2529 119.737 75.8435 121.118 74.9223C122.449 74.0012 123.318 72.6707 123.779 71.085H119.379ZM116.154 63.2036C115.234 63.2036 114.466 63.4595 113.902 64.0224C113.34 64.5853 112.982 65.3529 112.982 66.3764H119.379C119.379 65.3529 119.072 64.5853 118.611 64.0224C118.047 63.4595 117.178 63.2036 116.154 63.2036Z" fill="black"/>
</svg>
