<svg width="76" height="76" viewBox="0 0 76 76" fill="none" xmlns="http://www.w3.org/2000/svg">
<path d="M26.125 21.6719C26.9443 21.6719 27.6094 21.0068 27.6094 20.1875C27.6094 19.3682 26.9443 18.7031 26.125 18.7031C25.3057 18.7031 24.6406 19.3682 24.6406 20.1875C24.6406 21.0068 25.3057 21.6719 26.125 21.6719Z" fill="#F46036"/>
<path d="M26.125 30.5781C26.9443 30.5781 27.6094 29.9131 27.6094 29.0938C27.6094 28.2744 26.9443 27.6094 26.125 27.6094C25.3057 27.6094 24.6406 28.2744 24.6406 29.0938C24.6406 29.9131 25.3057 30.5781 26.125 30.5781Z" fill="#F46036"/>
<path d="M23.1562 76H58.7812C64.5106 76 69.1719 71.3387 69.1719 65.6094C69.1719 64.7895 68.5074 64.125 67.6875 64.125H63.2344V7.42188C63.2344 3.32941 59.905 0 55.8125 0C55.8125 0 13.1008 0 12.7656 0C9.49188 0 6.82812 2.66376 6.82812 5.9375V13.3594C6.82812 14.1793 7.49261 14.8438 8.3125 14.8438H15.7344V68.2604C15.7344 72.2943 18.8052 76 23.1562 76ZM58.7812 73.0312H29.0903C30.0238 71.7898 30.5781 70.2324 30.5781 68.563V67.0787H66.0541C65.3647 70.4626 62.3652 73.0312 58.7812 73.0312ZM60.2656 7.42188V64.125H29.0938C28.2739 64.125 27.6094 64.7895 27.6094 65.6094V68.5781C27.6094 71.0337 25.6118 73.0312 23.1562 73.0312C20.4948 73.0312 18.7031 70.7281 18.7031 68.2604V5.9375C18.7031 4.86713 18.4178 3.8501 17.9093 2.96875H55.8125C58.2681 2.96875 60.2656 4.96628 60.2656 7.42188ZM9.79688 11.875V5.9375C9.79688 4.30063 11.1288 2.96875 12.7656 2.96875C14.3886 2.96875 15.7344 4.27744 15.7344 5.9375V11.875H9.79688Z" fill="#F46036"/>
<path d="M39.4844 42.4531C39.4844 45.0229 40.5594 47.3991 42.4531 49.0864V58.7812C42.4531 59.3286 42.7546 59.8319 43.2371 60.0899C43.7195 60.3485 44.3057 60.3201 44.7609 60.0163L48.3906 57.5966L52.0204 60.0163C52.4767 60.3207 53.0623 60.348 53.5442 60.0899C54.0266 59.8319 54.3281 59.3286 54.3281 58.7812V49.0864C56.2224 47.3985 57.2969 45.0224 57.2969 42.4531C57.2969 37.5425 53.3018 33.5469 48.3906 33.5469C43.4794 33.5469 39.4844 37.5419 39.4844 42.4531ZM49.214 54.5775C48.7153 54.2452 48.0659 54.2452 47.5673 54.5775L45.4219 56.0079V50.8526C46.3653 51.186 47.3643 51.3594 48.3906 51.3594C49.4169 51.3594 50.416 51.186 51.3594 50.8526V56.0079L49.214 54.5775ZM54.3281 42.4531C54.3281 45.804 51.5994 48.3906 48.3906 48.3906C45.1807 48.3906 42.4531 45.8057 42.4531 42.4531C42.4531 39.1794 45.1169 36.5156 48.3906 36.5156C51.6644 36.5156 54.3281 39.1794 54.3281 42.4531Z" fill="#F46036"/>
<path d="M26.125 12.7656H52.8438C53.6636 12.7656 54.3281 12.1011 54.3281 11.2812C54.3281 10.4614 53.6636 9.79688 52.8438 9.79688H26.125C25.3051 9.79688 24.6406 10.4614 24.6406 11.2812C24.6406 12.1011 25.3051 12.7656 26.125 12.7656Z" fill="#F46036"/>
<path d="M32.0625 21.6719H52.8438C53.6636 21.6719 54.3281 21.0074 54.3281 20.1875C54.3281 19.3676 53.6636 18.7031 52.8438 18.7031H32.0625C31.2426 18.7031 30.5781 19.3676 30.5781 20.1875C30.5781 21.0074 31.2426 21.6719 32.0625 21.6719Z" fill="#F46036"/>
<path d="M32.0625 30.5781H52.8438C53.6636 30.5781 54.3281 29.9136 54.3281 29.0938C54.3281 28.2739 53.6636 27.6094 52.8438 27.6094H32.0625C31.2426 27.6094 30.5781 28.2739 30.5781 29.0938C30.5781 29.9136 31.2426 30.5781 32.0625 30.5781Z" fill="#F46036"/>
<path d="M26.125 48.3906H35.0312C35.8511 48.3906 36.5156 47.7261 36.5156 46.9062C36.5156 46.0864 35.8511 45.4219 35.0312 45.4219H26.125C25.3051 45.4219 24.6406 46.0864 24.6406 46.9062C24.6406 47.7261 25.3051 48.3906 26.125 48.3906Z" fill="#F46036"/>
<path d="M26.125 39.4844H35.0312C35.8511 39.4844 36.5156 38.8199 36.5156 38C36.5156 37.1801 35.8511 36.5156 35.0312 36.5156H26.125C25.3051 36.5156 24.6406 37.1801 24.6406 38C24.6406 38.8199 25.3051 39.4844 26.125 39.4844Z" fill="#F46036"/>
<path d="M26.125 57.2969H35.0312C35.8511 57.2969 36.5156 56.6324 36.5156 55.8125C36.5156 54.9926 35.8511 54.3281 35.0312 54.3281H26.125C25.3051 54.3281 24.6406 54.9926 24.6406 55.8125C24.6406 56.6324 25.3051 57.2969 26.125 57.2969Z" fill="#F46036"/>
</svg>
