<svg width="83" height="83" viewBox="0 0 83 83" fill="none" xmlns="http://www.w3.org/2000/svg">
<g clip-path="url(#clip0)">
<path d="M29.3713 11.5388C27.9499 8.6649 26.8293 6.39613 29.3021 2.68536C29.8312 1.88988 29.6133 0.817823 28.8214 0.288687C28.0363 -0.237045 26.9573 -0.0259744 26.4247 0.769351C22.8419 6.13675 24.7439 9.98255 26.2725 13.071C27.7009 15.9622 28.7348 18.0511 26.4247 21.5198C25.8922 22.3153 26.1101 23.3873 26.902 23.9165C27.1959 24.1136 27.5315 24.207 27.8635 24.207C28.4203 24.207 28.9666 23.9372 29.2986 23.4358C32.7191 18.3105 30.8653 14.5546 29.3713 11.5388Z" fill="black"/>
<path d="M43.1496 11.5388C41.7248 8.6649 40.6042 6.39613 43.0769 2.68536C43.6061 1.88988 43.3882 0.817823 42.5963 0.288687C41.8112 -0.237045 40.7287 -0.0259744 40.1996 0.769351C36.6202 6.14031 38.5222 9.98596 40.0474 13.0744C41.4758 15.9657 42.5097 18.0545 40.1996 21.5198C39.6705 22.3153 39.8884 23.3873 40.6803 23.9165C40.9742 24.1136 41.3062 24.207 41.6382 24.207C42.195 24.207 42.7414 23.9372 43.0769 23.4358C46.4974 18.3105 44.6436 14.5546 43.1496 11.5388Z" fill="black"/>
<path d="M56.9245 11.5388C55.4997 8.6649 54.3791 6.39613 56.8518 2.68536C57.381 1.88988 57.1631 0.817823 56.3712 0.288687C55.5861 -0.237045 54.5036 -0.0259744 53.9745 0.769351C50.395 6.14031 52.2971 9.98596 53.8223 13.0744C55.2507 15.9657 56.2846 18.0545 53.9745 21.5198C53.4454 22.3153 53.6632 23.3873 54.4552 23.9165C54.7491 24.1136 55.0811 24.207 55.4131 24.207C55.9734 24.207 56.5198 23.9372 56.8518 23.4358C60.2723 18.3105 58.4185 14.5546 56.9245 11.5388Z" fill="black"/>
<path d="M70.8965 27.6654H12.1035C7.33431 27.6654 3.45754 31.5457 3.45754 36.3114V67.437C3.45754 72.2027 7.33447 76.083 12.1035 76.083H70.8965C75.6657 76.083 79.5425 72.2027 79.5425 67.437V36.3114C79.5425 31.5457 75.6655 27.6654 70.8965 27.6654ZM76.0841 67.4372C76.0841 70.2974 73.7567 72.6248 70.8965 72.6248H12.1035C9.24335 72.6248 6.9159 70.2974 6.9159 67.4372V36.3115C6.9159 33.4514 9.24335 31.1239 12.1035 31.1239H70.8965C73.7567 31.1239 76.0841 33.4514 76.0841 36.3115V67.4372Z" fill="black"/>
<path d="M15.5619 34.5823C14.6073 34.5823 13.8326 35.357 13.8326 36.3115V67.4372C13.8326 68.3917 14.6073 69.1665 15.5619 69.1665C16.5164 69.1665 17.2911 68.3917 17.2911 67.4372V36.3115C17.2911 35.357 16.5164 34.5823 15.5619 34.5823Z" fill="black"/>
<path d="M25.9371 34.5823C24.9826 34.5823 24.2078 35.357 24.2078 36.3115V67.4372C24.2078 68.3917 24.9826 69.1665 25.9371 69.1665C26.8916 69.1665 27.6663 68.3917 27.6663 67.4372V36.3115C27.6663 35.357 26.8916 34.5823 25.9371 34.5823Z" fill="black"/>
<path d="M36.3123 34.5823C35.3578 34.5823 34.5831 35.357 34.5831 36.3115V67.4372C34.5831 68.3917 35.3578 69.1665 36.3123 69.1665C37.2668 69.1665 38.0416 68.3917 38.0416 67.4372V36.3115C38.0416 35.357 37.2668 34.5823 36.3123 34.5823Z" fill="black"/>
<path d="M46.6875 34.5823C45.733 34.5823 44.9583 35.357 44.9583 36.3115V67.4372C44.9583 68.3917 45.733 69.1665 46.6875 69.1665C47.642 69.1665 48.4168 68.3917 48.4168 67.4372V36.3115C48.4168 35.357 47.642 34.5823 46.6875 34.5823Z" fill="black"/>
<path d="M57.0627 34.5823C56.1082 34.5823 55.3335 35.357 55.3335 36.3115V67.4372C55.3335 68.3917 56.1082 69.1665 57.0627 69.1665C58.0173 69.1665 58.792 68.3917 58.792 67.4372V36.3115C58.792 35.357 58.0173 34.5823 57.0627 34.5823Z" fill="black"/>
<path d="M67.438 34.5823C66.4835 34.5823 65.7087 35.357 65.7087 36.3115V67.4372C65.7087 68.3917 66.4835 69.1665 67.438 69.1665C68.3925 69.1665 69.1672 68.3917 69.1672 67.4372V36.3115C69.1672 35.357 68.3925 34.5823 67.438 34.5823Z" fill="black"/>
<path d="M19.0204 72.6248C18.0659 72.6248 17.2911 73.3995 17.2911 74.354V81.2709C17.2911 82.2254 18.0659 83.0002 19.0204 83.0002C19.9749 83.0002 20.7496 82.2254 20.7496 81.2709V74.354C20.7495 73.3993 19.9749 72.6248 19.0204 72.6248Z" fill="black"/>
<path d="M63.9796 72.6248C63.0251 72.6248 62.2504 73.3995 62.2504 74.354V81.2709C62.2504 82.2254 63.0251 83.0002 63.9796 83.0002C64.9341 83.0002 65.7089 82.2254 65.7089 81.2709V74.354C65.7089 73.3993 64.9341 72.6248 63.9796 72.6248Z" fill="black"/>
</g>
<defs>
<clipPath id="clip0">
<rect width="83" height="83" fill="white"/>
</clipPath>
</defs>
</svg>
