<svg width="105" height="105" viewBox="0 0 105 105" fill="none" xmlns="http://www.w3.org/2000/svg">
<path d="M81.8842 35.3757H76.0305C74.9417 35.3757 73.9598 36.063 73.5872 37.0859V37.0857L62.9971 66.1418C62.707 66.9385 62.8236 67.8289 63.3099 68.5235C63.7959 69.2181 64.5924 69.6328 65.4406 69.6328H71.2946C72.3834 69.6328 73.3653 68.9456 73.7379 67.9227L84.3275 38.8668C84.9448 37.1724 83.6877 35.3757 81.8842 35.3757ZM70.9613 66.5564H66.1205L76.3635 38.4521H81.2042L70.9613 66.5564Z" fill="black"/>
<path d="M104.936 48.8086C104.016 35.5745 98.1605 23.2753 88.448 14.1771C78.6897 5.03467 65.9468 0 52.5673 0C52.0478 0 51.5009 0.00902344 50.9414 0.0268652C49.8769 0.0609082 48.9526 0.732129 48.5871 1.73701L38.9251 28.292C38.3086 29.9861 39.5657 31.7818 41.3688 31.7818H48.9308C53.2688 31.7818 55.4316 34.8817 53.9483 38.956L41.4586 73.2793L33.9365 73.2781L46.4625 38.8939C47.0798 37.1997 45.8231 35.403 44.0192 35.403H38.1632C37.0742 35.403 36.0923 36.0903 35.7197 37.1132L22.5451 73.2775L15.0181 73.2769C42.3858 -1.90661 21.346 55.9137 39.527 5.94234C39.8699 5.00001 39.6498 3.96662 38.9525 3.24577C38.2545 2.5239 37.2278 2.26919 36.2728 2.58029C25.8275 5.98746 16.8425 12.485 10.2892 21.37C-11.6062 51.0552 3.28413 94.0088 39.4078 103.334C40.7131 103.67 42.0476 102.973 42.5082 101.706C42.5291 101.648 53.5078 71.4993 67.9615 31.7818H76.3219C77.1715 31.7818 77.86 31.0931 77.86 30.2437C77.86 29.3943 77.1715 28.7056 76.3219 28.7056H67.628C66.5386 28.7056 65.5563 29.3934 65.1843 30.4168C56.8393 53.3478 45.0889 85.6185 39.7653 100.247C18.1808 94.4785 3.14365 74.906 3.14365 52.5C3.14365 31.3681 16.4264 12.7319 36.2986 5.81786C30.9395 20.5476 39.2503 -2.286 11.8949 72.8632C11.2787 74.557 12.535 76.3532 14.3382 76.3532L22.8783 76.3541C23.9673 76.3541 24.9492 75.6666 25.3218 74.6439L38.4965 38.4798H43.3392L30.8132 72.8638C30.1959 74.558 31.4526 76.3545 33.2561 76.3547L41.791 76.3561C41.7912 76.3561 41.7914 76.3561 41.7916 76.3561C42.8806 76.3561 43.8627 75.6687 44.2354 74.645L56.8391 40.0085C59.0566 33.9166 55.4119 28.7058 48.9306 28.7058H42.048L51.3674 3.09278C77.5833 2.41726 100.04 22.7446 101.867 49.0223C101.926 49.8699 102.66 50.5087 103.508 50.45C104.355 50.3908 104.995 49.656 104.936 48.8086Z" fill="black"/>
<path d="M103.508 54.5591C102.663 54.5019 101.926 55.1391 101.867 55.9865C100.088 81.5161 78.8004 101.564 53.2422 101.919L62.5445 76.3532H75.8004C78.9686 76.3532 82.2995 74.0213 83.3837 71.0446L94.6831 40.0078C96.9015 33.9109 93.2496 28.7056 86.769 28.7056H83.5002C82.6506 28.7056 81.9621 29.3942 81.9621 30.2437C81.9621 31.0931 82.6506 31.7817 83.5002 31.7817H86.769C91.1129 31.7817 93.2742 34.8829 91.7921 38.9556L80.4929 69.9917C79.8558 71.7416 77.6629 73.2766 75.8004 73.2766H62.2113C61.1221 73.2764 60.14 73.9643 59.768 74.9878L50.1174 101.51C49.5056 103.191 50.7371 104.999 52.5673 105C65.9451 105 78.6866 99.9661 88.4455 90.8256C98.1574 81.7289 104.013 69.4322 104.935 56.2002C104.994 55.353 104.355 54.6182 103.508 54.5591Z" fill="black"/>
</svg>
