<svg width="83" height="83" viewBox="0 0 83 83" fill="none" xmlns="http://www.w3.org/2000/svg">
<path d="M68.0199 42.0234H42.0281C35.7266 42.0234 30.5999 47.1628 30.5999 53.4799V57.7513C30.5999 58.6465 31.3257 59.3724 32.221 59.3724H68.0199C68.9153 59.3724 69.641 58.6465 69.641 57.7513V43.6445C69.641 42.7492 68.9153 42.0234 68.0199 42.0234ZM66.3988 56.13H33.8421V53.4797C33.8421 48.9504 37.5144 45.2655 42.0281 45.2655H66.3988V56.13Z" fill="black"/>
<path d="M81.3789 63.1521H79.8912V35.0832C79.8912 35.0792 79.8914 35.0749 79.8914 35.0709V23.5201C79.8914 19.8204 76.8802 16.8104 73.1789 16.8104H17.7481C16.2336 16.8104 15.0016 15.5725 15.0016 14.0511C15.0016 12.5297 16.2336 11.2919 17.7481 11.2919H65.4209C66.3162 11.2919 67.042 10.5659 67.042 9.67078C67.042 8.77561 66.3162 8.04968 65.4209 8.04968H17.7481C14.4459 8.04968 11.7594 10.7418 11.7594 14.0511C11.7594 17.3604 14.4459 20.0526 17.7481 20.0526H73.1789C75.0925 20.0526 76.6492 21.6082 76.6492 23.5201V32.311H72.6055V28.8958C72.6055 26.3961 70.5719 24.3624 68.0722 24.3624H60.494C59.3863 24.3624 58.3701 24.7619 57.5817 25.4242C56.7934 24.7619 55.7773 24.3624 54.6696 24.3624H47.0915C44.5918 24.3624 42.5581 26.3961 42.5581 28.8958V32.311H40.781C32.3001 32.311 24.0223 35.2862 17.4739 40.687C15.2495 42.5177 13.2419 44.6115 11.5062 46.9109C10.5113 48.2303 9.59785 49.6294 8.79249 51.067C7.92131 52.6158 7.15518 54.2476 6.51534 55.9172C6.02933 57.1842 5.60688 58.5051 5.25899 59.8438L4.13298 63.1524H1.62109C0.725764 63.1524 0 63.8784 0 64.7735V73.3292C0 74.2243 0.725764 74.9503 1.62109 74.9503H81.3789C82.2742 74.9503 83 74.2243 83 73.3292V64.7735C83 63.878 82.2742 63.1521 81.3789 63.1521ZM60.494 27.6045H68.0722C68.7841 27.6045 69.3634 28.1837 69.3634 28.8957V32.3108H59.2028V28.8957C59.2028 28.1837 59.782 27.6045 60.494 27.6045ZM45.8003 28.8957C45.8003 28.1837 46.3795 27.6045 47.0915 27.6045H54.6696C55.3816 27.6045 55.9606 28.1837 55.9606 28.8957V32.3108H45.8003V28.8957ZM13.2975 49.9665C14.276 50.5809 14.9086 51.6782 14.9086 52.8708C14.9086 54.7566 13.3808 56.2908 11.5031 56.2908C10.9782 56.2908 10.4655 56.1693 10.0026 55.9402C10.4822 54.8142 11.0238 53.7135 11.6197 52.6541C12.134 51.7357 12.6961 50.8359 13.2975 49.9665ZM8.34782 60.8305C8.36095 60.792 8.37262 60.7529 8.38284 60.7132C8.5323 60.134 8.69701 59.5583 8.87597 58.9901C9.69868 59.3455 10.5916 59.5329 11.5033 59.5329C15.1687 59.5329 18.1509 56.5442 18.1509 52.8707C18.1509 50.619 17.0513 48.5965 15.2804 47.3818C16.5697 45.862 17.9953 44.4569 19.5355 43.1893C25.506 38.2649 33.051 35.5532 40.781 35.5532H44.1348C44.1495 35.5535 44.1643 35.5538 44.1792 35.5538H70.9845C70.9994 35.5538 71.0141 35.5536 71.0289 35.5532H76.649V63.1523H7.5577L8.34782 60.8305ZM79.7578 71.7079H3.24219V66.3945H79.7578V71.7079Z" fill="black"/>
</svg>
