<svg width="88" height="88" viewBox="0 0 88 88" fill="none" xmlns="http://www.w3.org/2000/svg">
<g clip-path="url(#clip0)">
<path d="M36.8829 38.814C40.2171 38.814 42.4883 41.1173 42.4883 44.2914V52.4634C42.4883 52.6751 42.3166 52.8468 42.1048 52.8468H39.0817C38.87 52.8468 38.6983 52.6751 38.6983 52.4634V44.9936C38.6983 43.1684 37.0756 42.0777 35.5076 42.0777C33.4786 42.0777 32.3826 43.5801 32.3826 44.9936V52.4634C32.3826 52.6751 32.2109 52.8468 31.9991 52.8468H28.9769C28.7651 52.8468 28.5934 52.6751 28.5934 52.4634V39.4289C28.5934 39.2172 28.7651 39.0455 28.9769 39.0455H31.9998C32.2115 39.0455 32.3833 39.2172 32.3833 39.4291L32.3826 41.0231L32.3833 41.0224L32.3826 41.0253C33.4869 39.5506 35.2939 38.814 36.8829 38.814Z" fill="#141516"/>
<path d="M40.6461 52.4638V44.994C40.6461 43.1688 39.0235 42.0781 37.4555 42.0781C37.0937 42.0781 36.763 42.1278 36.4613 42.2143C37.6708 42.5573 38.6985 43.542 38.6985 44.994V52.4638C38.6985 52.6756 38.8702 52.8473 39.0819 52.8473H41.0298C40.8178 52.8473 40.6461 52.6756 40.6461 52.4638Z" fill="black"/>
<path d="M30.5413 52.4638V39.4294C30.5413 39.2176 30.713 39.0459 30.9247 39.0459H28.9769C28.7651 39.0459 28.5934 39.2176 28.5934 39.4294V52.4638C28.5934 52.6756 28.7651 52.8473 28.9769 52.8473H30.9247C30.713 52.8473 30.5413 52.6756 30.5413 52.4638Z" fill="black"/>
<path d="M69.6922 39.0464H73.1799C73.4529 39.0464 73.6383 39.3234 73.5345 39.5758L68.1717 52.6058C68.1125 52.7495 67.9725 52.8433 67.8171 52.8433H64.1778C64.0224 52.8433 63.8824 52.7495 63.8232 52.6058L58.4604 39.5758C58.3566 39.3234 58.5421 39.0464 58.815 39.0464H62.3035C62.4647 39.0464 62.6086 39.1471 62.6638 39.2985L65.6377 47.459C65.7603 47.7952 66.2357 47.7952 66.3582 47.459L69.3322 39.2985C69.3872 39.1471 69.531 39.0464 69.6922 39.0464Z" fill="#141516"/>
<path d="M65.771 52.6058L60.4081 39.5758C60.3043 39.3234 60.4897 39.0464 60.7627 39.0464H58.8148C58.5419 39.0464 58.3564 39.3234 58.4602 39.5758L63.8231 52.6058C63.8822 52.7495 64.0223 52.8433 64.1777 52.8433H66.1255C65.9702 52.8433 65.8301 52.7495 65.771 52.6058Z" fill="black"/>
<path d="M27.1846 44.6287C26.9429 43.2518 26.3933 42.0234 25.577 41.0741C24.304 39.5957 22.4199 38.8135 20.1257 38.8135C15.9586 38.8135 12.8164 41.8876 12.8164 45.948C12.8164 50.1137 15.966 53.0818 20.5433 53.0818C22.9104 53.0818 25.3264 52.0465 26.649 50.7705C26.8192 50.6063 26.807 50.331 26.6194 50.1868L24.7874 48.7784C24.6542 48.676 24.4688 48.6722 24.332 48.77C22.8752 49.811 21.983 50.0659 20.5994 50.0659C19.5805 50.0659 18.7337 49.8196 18.0677 49.3745C17.8135 49.2045 17.853 48.8183 18.1355 48.7011L26.9525 45.0434C27.1163 44.9754 27.2153 44.8033 27.1846 44.6287ZM22.7404 43.9223L16.9979 46.3046C16.7496 46.4076 16.4751 46.229 16.4666 45.9604C16.43 44.8092 16.7691 43.8893 17.2794 43.204C17.9248 42.3374 18.9528 41.8287 20.1944 41.8287C21.3952 41.8287 22.3411 42.4316 22.9162 43.3596C23.0422 43.5629 22.9614 43.8307 22.7404 43.9223Z" fill="#141516"/>
<path d="M14.7642 45.948C14.7642 42.1989 17.4439 39.2928 21.1349 38.8688C20.8079 38.8334 20.4722 38.8135 20.1257 38.8135C15.9586 38.8135 12.8164 41.8876 12.8164 45.948C12.8164 50.1137 15.966 53.0818 20.5433 53.0818C20.8539 53.0818 21.1652 53.0631 21.4747 53.0292C17.4548 52.6219 14.7642 49.7973 14.7642 45.948Z" fill="black"/>
<path d="M12.4552 49.7509V52.464C12.4552 52.6757 12.2835 52.8474 12.0718 52.8474H0.383452C0.171703 52.8474 0 52.6757 0 52.464V35.3019C0 35.0902 0.171703 34.9185 0.383452 34.9185H3.45795C3.6697 34.9185 3.8414 35.0902 3.8414 35.3019V48.9842C3.8414 49.1959 4.0131 49.3676 4.22485 49.3676H12.0718C12.2835 49.3675 12.4552 49.5392 12.4552 49.7509Z" fill="#141516"/>
<path d="M1.94786 52.464V35.3019C1.94786 35.0902 2.11956 34.9185 2.33131 34.9185H0.383452C0.171703 34.9185 0 35.0902 0 35.3019V52.464C0 52.6757 0.171703 52.8474 0.383452 52.8474H2.33131C2.11956 52.8472 1.94786 52.6757 1.94786 52.464Z" fill="black"/>
<path d="M80.6084 38.8135C76.4353 38.8135 73.1653 41.9468 73.1653 45.9464C73.1653 49.9919 76.4129 53.0794 80.5577 53.0794C84.7308 53.0794 88 49.9455 88 45.9464C87.9999 41.9012 84.7531 38.8135 80.6084 38.8135ZM80.6084 49.832C78.5323 49.832 76.9045 48.125 76.9045 45.9464C76.9045 43.6648 78.4412 42.0609 80.5577 42.0609C82.6346 42.0609 84.2618 43.7679 84.2618 45.9464C84.2616 48.1841 82.7255 49.832 80.6084 49.832Z" fill="#141516"/>
<path d="M81.595 49.7001C81.9011 49.7835 82.2218 49.832 82.5561 49.832C84.6732 49.832 86.2093 48.1839 86.2093 45.9464C86.2093 43.7679 84.5821 42.0608 82.5054 42.0608C82.1568 42.0608 81.826 42.1082 81.513 42.1911C83.1114 42.6233 84.2614 44.1162 84.2614 45.9462C84.2616 47.8178 83.1851 49.2727 81.595 49.7001Z" fill="black"/>
<path d="M75.113 45.9466C75.113 42.264 77.8857 39.3181 81.5824 38.8736C81.2641 38.8353 80.9394 38.8135 80.6084 38.8135C76.4353 38.8135 73.1653 41.9468 73.1653 45.9464C73.1653 49.9919 76.4129 53.0794 80.5577 53.0794C80.8885 53.0794 81.213 53.0576 81.5313 53.0193C77.8632 52.5781 75.113 49.6687 75.113 45.9466Z" fill="black"/>
<path d="M51.4308 38.8135C47.2568 38.8135 43.9877 41.9468 43.9877 45.9464C43.9877 49.9919 47.2344 53.0794 51.3792 53.0794C55.5523 53.0794 58.8222 49.9455 58.8222 45.9464C58.8222 41.9012 55.5747 38.8135 51.4308 38.8135ZM51.4308 49.832C49.3538 49.832 47.7269 48.125 47.7269 45.9464C47.7269 43.6648 49.2629 42.0609 51.3794 42.0609C53.4563 42.0609 55.0833 43.7679 55.0833 45.9464C55.0831 48.1841 53.5471 49.832 51.4308 49.832Z" fill="#141516"/>
<path d="M45.9354 45.9466C45.9354 42.264 48.7076 39.3181 52.4046 38.8736C52.0863 38.8353 51.7618 38.8135 51.4308 38.8135C47.257 38.8135 43.9877 41.9468 43.9877 45.9464C43.9877 49.9919 47.2344 53.0794 51.3792 53.0794C51.7101 53.0794 52.0346 53.0576 52.3529 53.0193C48.6849 52.5781 45.9354 49.6687 45.9354 45.9466Z" fill="black"/>
<path d="M52.4171 49.7001C52.7233 49.7835 53.0441 49.832 53.3786 49.832C55.4951 49.832 57.0311 48.1839 57.0311 45.9464C57.0311 43.7679 55.404 42.0608 53.3272 42.0608C52.9787 42.0608 52.6478 42.1082 52.335 42.1911C55.9851 43.1785 55.9801 48.7419 52.4171 49.7001Z" fill="black"/>
</g>
<defs>
<clipPath id="clip0">
<rect width="88" height="88" fill="white"/>
</clipPath>
</defs>
</svg>
