<svg width="92" height="93" viewBox="0 0 92 93" fill="none" xmlns="http://www.w3.org/2000/svg">
<path d="M67.7211 75.7018C67.8417 75.6135 67.9531 75.5112 68.0532 75.3966C68.4401 74.9523 68.616 74.363 68.5354 73.7794C68.155 71.0279 67.2924 69.0409 65.0047 67.2951C58.3812 62.2418 42.9459 63.5411 42.9459 78.7034C42.9459 80.66 43.1949 82.4769 43.6746 84.1177C43.3579 83.7086 42.8633 83.4435 42.3069 83.4435H33.4097V67.0238C33.4097 66.0697 32.6334 65.2936 31.6795 65.2936H25.5126C24.4361 65.2936 23.5602 66.1694 23.5602 67.2459V90.4679C23.5602 91.4221 24.3365 92.198 25.2904 92.198H42.3067C43.261 92.198 44.0371 91.4218 44.0371 90.4679V85.2078C44.5476 86.5668 45.2309 87.7848 46.0842 88.8308C49.9032 93.5132 56.4755 93.6725 60.1283 91.3383C60.4448 91.8535 61.0138 92.1979 61.6615 92.1979H66.8461C67.8356 92.1979 68.6405 91.3929 68.6405 90.4034V77.3827C68.6411 76.6778 68.2741 76.0573 67.7211 75.7018ZM41.3409 89.5014H26.2569V67.9897H30.7136V84.4097C30.7136 85.3639 31.4898 86.1399 32.4438 86.1399H41.3409V89.5014ZM65.9446 89.5012H62.5601V88.4378C62.5601 87.1078 60.8209 86.5809 60.0859 87.696C57.2902 91.9389 45.6424 91.65 45.6424 78.7032C45.6425 66.0795 58.3324 65.607 63.3592 69.4313C64.7545 70.5399 65.3919 71.5674 65.7418 73.3979H60.8775C59.1844 68.7315 50.4409 68.4948 50.4409 78.8012C50.4409 85.1151 53.5711 87.3646 56.5007 87.3646C59.2544 87.3646 61.0537 85.884 61.8483 82.9639C62.1881 81.7124 61.2441 80.4815 59.9481 80.4815H57.4589V78.0823H65.9446V89.5012ZM57.1332 83.1781H58.919C58.3561 84.3906 57.5325 84.6682 56.501 84.6682C53.4654 84.6682 53.1377 80.5653 53.1377 78.8013C53.1377 77.0667 53.453 73.0317 56.3733 73.0317C57.3699 73.0317 58.0986 73.5327 58.3728 74.4062C58.4918 74.7858 58.6954 75.1186 58.9587 75.3862H56.913C55.7271 75.3862 54.7624 76.351 54.7624 77.5368V80.8073C54.7624 82.1146 55.8258 83.1781 57.1332 83.1781Z" fill="black"/>
<path d="M52.3044 40.2245H47.4858V18.4162C47.4861 18.0134 47.1583 17.6855 46.7554 17.6855H45.4635C45.0382 17.6855 44.692 18.0315 44.692 18.457V42.1019C44.692 42.5833 45.0838 42.975 45.5652 42.975H52.2961C52.7401 42.975 53.1013 42.6138 53.1013 42.1699V41.0214C53.1013 40.5822 52.7438 40.2245 52.3044 40.2245Z" fill="black"/>
<path d="M68.7906 28.9986H53.4047C52.9486 28.9986 52.5777 29.3697 52.5777 29.8257V30.9478C52.5777 31.3763 52.9263 31.7249 53.3549 31.7249H67.1957L67.1889 31.8211C65.9378 49.7159 44.0333 58.1842 31.1211 45.2901C22.8594 37.0469 22.8603 23.6257 31.1209 15.3798C35.1344 11.3848 40.4464 9.18468 46.0784 9.18468C46.7964 9.18468 47.011 9.23833 47.2739 8.97742C47.411 8.84122 47.4865 8.65945 47.4865 8.46618V7.17455C47.4865 6.77314 47.1603 6.44224 46.7591 6.43686C46.5068 6.43345 46.2381 6.43237 46.0689 6.43237C32.9015 6.43219 22.1893 17.1563 22.1893 30.3378C22.1893 36.7179 24.6753 42.7219 29.189 47.2434C38.544 56.6222 53.7059 56.5443 62.9903 47.2434C67.5027 42.721 69.9878 36.7172 69.9878 30.3376C69.9878 29.4293 69.3998 28.9986 68.7906 28.9986Z" fill="black"/>
<path d="M37.0698 16.5938C34.4616 16.5938 32.3397 18.7196 32.3397 21.3332C32.3397 23.9373 34.4614 26.056 37.0698 26.056C39.6831 26.056 41.8093 23.9375 41.8093 21.3332C41.8091 18.72 39.6831 16.5938 37.0698 16.5938ZM37.0696 23.3593C35.9485 23.3593 35.0362 22.4504 35.0362 21.3332C35.0362 20.2068 35.9483 19.2902 37.0696 19.2902C38.196 19.2902 39.1126 20.2065 39.1126 21.3332C39.1124 22.4502 38.196 23.3593 37.0696 23.3593Z" fill="black"/>
<path d="M75.4797 27.0514C73.9621 13.3518 63.0742 2.47428 49.3829 0.949733C48.6419 0.867728 47.976 1.40067 47.8937 2.14052C47.8113 2.88054 48.3446 3.54736 49.0845 3.6299C61.4558 5.00731 71.4296 14.9824 72.7999 27.3485C72.8815 28.0861 73.5447 28.6219 74.2883 28.5402C75.0284 28.458 75.5617 27.7916 75.4797 27.0514Z" fill="black"/>
<path d="M74.2882 32.1512C73.5449 32.0705 72.8817 32.6031 72.7997 33.3427C71.2906 46.9609 59.7988 57.2302 46.0687 57.2302C31.258 57.2302 19.2086 45.1699 19.2086 30.3453C19.2086 16.6165 29.4753 5.12941 43.0898 3.62585C43.8298 3.54403 44.3637 2.87775 44.282 2.13773C44.2004 1.3977 43.5348 0.864398 42.7939 0.945686C27.955 2.58454 16.5121 15.1737 16.5121 30.3455C16.5121 46.6567 29.771 59.9269 46.0689 59.9269C61.1754 59.9269 73.8193 48.6259 75.4799 33.6399C75.5617 32.8997 75.0284 32.2334 74.2882 32.1512Z" fill="black"/>
</svg>
