<svg width="50" height="44" viewBox="0 0 50 44" fill="none" xmlns="http://www.w3.org/2000/svg">
<g clip-path="url(#clip0)">
<path d="M11.0802 41.7652L0.752715 24.0467C0.389353 23.4239 0.198059 22.7174 0.198059 21.9981C0.198059 21.2789 0.389353 20.5724 0.752715 19.9496L11.0802 2.23483C11.4446 1.61013 11.9692 1.09172 12.601 0.732009C13.2328 0.372296 13.9493 0.184028 14.6782 0.186237H35.3331C36.06 0.185994 36.7742 0.375194 37.4039 0.734809C38.0335 1.09442 38.5563 1.61177 38.9198 2.23483L49.2548 19.9496C49.6181 20.5724 49.8094 21.2789 49.8094 21.9981C49.8094 22.7174 49.6181 23.4239 49.2548 24.0467L38.9198 41.7652C38.5563 42.3882 38.0335 42.9056 37.4039 43.2652C36.7742 43.6248 36.06 43.814 35.3331 43.8138H14.6782C13.9493 43.816 13.2328 43.6277 12.601 43.268C11.9692 42.9083 11.4446 42.3899 11.0802 41.7652Z" fill="#F46036" stroke="#2B4570" stroke-miterlimit="10"/>
<path d="M16.9063 31.9953L12.3636 24.2106C12.0002 23.5878 11.8089 22.8812 11.8089 22.162C11.8089 21.4428 12.0002 20.7363 12.3636 20.1134L16.9063 12.3214C17.2694 11.6989 17.7917 11.1819 18.4206 10.8223C19.0495 10.4627 19.7629 10.2732 20.4893 10.2728H29.5785C30.3048 10.2732 31.0182 10.4627 31.6471 10.8223C32.276 11.1819 32.7983 11.6989 33.1614 12.3214L37.7042 20.1134C38.0675 20.7363 38.2588 21.4428 38.2588 22.162C38.2588 22.8812 38.0675 23.5878 37.7042 24.2106L33.1614 31.9953C32.7983 32.6178 32.276 33.1348 31.6471 33.4944C31.0182 33.8539 30.3048 34.0435 29.5785 34.0439H20.4893C19.7629 34.0435 19.0495 33.8539 18.4206 33.4944C17.7917 33.1348 17.2694 32.6178 16.9063 31.9953Z" fill="#F46036" stroke="#2B4570" stroke-miterlimit="10"/>
<path d="M16.7934 21.9981H19.1231" stroke="#F2F4F3" stroke-miterlimit="10"/>
<path d="M16.7934 19.4169H19.1231" stroke="#F2F4F3" stroke-miterlimit="10"/>
<path d="M16.7934 24.5831H19.1231" stroke="#F2F4F3" stroke-miterlimit="10"/>
<path d="M30.9446 21.9981H33.2743" stroke="#F2F4F3" stroke-miterlimit="10"/>
<path d="M30.9446 19.4169H33.2743" stroke="#F2F4F3" stroke-miterlimit="10"/>
<path d="M30.9446 24.5831H33.2743" stroke="#F2F4F3" stroke-miterlimit="10"/>
<path d="M24.6744 30.1553V27.8497" stroke="#F2F4F3" stroke-miterlimit="10"/>
<path d="M22.0624 30.1553V27.8497" stroke="#F2F4F3" stroke-miterlimit="10"/>
<path d="M27.2827 30.1553V27.8497" stroke="#F2F4F3" stroke-miterlimit="10"/>
<path d="M24.6744 16.277V13.9714" stroke="#F2F4F3" stroke-miterlimit="10"/>
<path d="M22.0624 16.277V13.9714" stroke="#F2F4F3" stroke-miterlimit="10"/>
<path d="M27.2827 16.277V13.9714" stroke="#F2F4F3" stroke-miterlimit="10"/>
<path d="M28.3575 15.7736H21.8012C20.3462 15.7736 19.1667 16.9409 19.1667 18.3809V24.8693C19.1667 26.3093 20.3462 27.4766 21.8012 27.4766H28.3575C29.8125 27.4766 30.9921 26.3093 30.9921 24.8693V18.3809C30.9921 16.9409 29.8125 15.7736 28.3575 15.7736Z" stroke="#F2F4F3" stroke-miterlimit="10"/>
<path d="M26.9665 20.1544H23.105V23.976H26.9665V20.1544Z" fill="#F46036" stroke="#F2F4F3" stroke-miterlimit="10"/>
<path d="M28.8897 26.1065L28.8784 23.8717" stroke="#F2F4F3" stroke-miterlimit="10"/>
<path d="M26.7971 25.9354L29.0553 25.924" stroke="#F2F4F3" stroke-miterlimit="10"/>
<path d="M29.0252 18.0574L26.767 18.0612" stroke="#F2F4F3" stroke-miterlimit="10"/>
<path d="M28.8445 20.1246L28.8408 17.8898" stroke="#F2F4F3" stroke-miterlimit="10"/>
<path d="M21.2985 17.8451L21.306 20.0799" stroke="#F2F4F3" stroke-miterlimit="10"/>
<path d="M23.391 18.0201L21.1328 18.0315" stroke="#F2F4F3" stroke-miterlimit="10"/>
<path d="M21.1517 25.8979H23.4099" stroke="#F2F4F3" stroke-miterlimit="10"/>
<path d="M21.3361 23.827V26.0618" stroke="#F2F4F3" stroke-miterlimit="10"/>
</g>
<defs>
<clipPath id="clip0">
<rect width="50" height="44" fill="white"/>
</clipPath>
</defs>
</svg>
