<svg width="33" height="33" viewBox="0 0 33 33" fill="none" xmlns="http://www.w3.org/2000/svg">
<path d="M16.5 0C7.40202 0 0 7.40202 0 16.5C0 25.598 7.40202 33 16.5 33C25.598 33 33 25.598 33 16.5C33 7.40202 25.598 0 16.5 0ZM23.5714 24.1607H9.42857C8.778 24.1607 8.25 23.6327 8.25 22.9821C8.25 22.3316 8.778 21.8036 9.42857 21.8036H23.5714C24.222 21.8036 24.75 22.3316 24.75 22.9821C24.75 23.6327 24.222 24.1607 23.5714 24.1607ZM23.5714 17.6786H9.42857C8.778 17.6786 8.25 17.1506 8.25 16.5C8.25 15.8494 8.778 15.3214 9.42857 15.3214H23.5714C24.222 15.3214 24.75 15.8494 24.75 16.5C24.75 17.1506 24.222 17.6786 23.5714 17.6786ZM23.5714 11.1964H9.42857C8.778 11.1964 8.25 10.6684 8.25 10.0179C8.25 9.36729 8.778 8.83929 9.42857 8.83929H23.5714C24.222 8.83929 24.75 9.36729 24.75 10.0179C24.75 10.6684 24.222 11.1964 23.5714 11.1964Z" fill="#F46036"/>
</svg>
