<svg width="83" height="83" viewBox="0 0 83 83" fill="none" xmlns="http://www.w3.org/2000/svg">
<path d="M60.8667 0H22.1333C18.3153 0.00449583 15.2212 3.09867 15.2167 6.91667V76.0833C15.2212 79.9013 18.3153 82.9955 22.1333 83H60.8667C64.6847 82.9955 67.7788 79.9013 67.7833 76.0833V6.91667C67.7788 3.09867 64.6847 0.00449583 60.8667 0ZM65.0167 76.0833C65.0167 78.3753 63.1587 80.2333 60.8667 80.2333H22.1333C19.8413 80.2333 17.9833 78.3753 17.9833 76.0833V74.7H65.0167V76.0833ZM65.0167 71.9333H17.9833V11.0667H65.0167V71.9333ZM65.0167 8.3H17.9833V6.91667C17.9833 4.62466 19.8413 2.76667 22.1333 2.76667H60.8667C63.1587 2.76667 65.0167 4.62466 65.0167 6.91667V8.3Z" fill="black"/>
<path d="M38.7333 4.15002H35.9667C35.2027 4.15002 34.5833 4.76941 34.5833 5.53336C34.5833 6.2973 35.2027 6.91669 35.9667 6.91669H38.7333C39.4973 6.91669 40.1167 6.2973 40.1167 5.53336C40.1167 4.76941 39.4973 4.15002 38.7333 4.15002Z" fill="black"/>
<path d="M48.4167 4.15002H42.8833C42.1194 4.15002 41.5 4.76941 41.5 5.53336C41.5 6.2973 42.1194 6.91669 42.8833 6.91669H48.4167C49.1806 6.91669 49.8 6.2973 49.8 5.53336C49.8 4.76941 49.1806 4.15002 48.4167 4.15002Z" fill="black"/>
<path d="M45.65 76.0834H37.35C36.5861 76.0834 35.9667 76.7028 35.9667 77.4667C35.9667 78.2306 36.5861 78.85 37.35 78.85H45.65C46.4139 78.85 47.0333 78.2306 47.0333 77.4667C47.0333 76.7028 46.4139 76.0834 45.65 76.0834Z" fill="black"/>
</svg>
