<svg width="76" height="76" viewBox="0 0 76 76" fill="none" xmlns="http://www.w3.org/2000/svg">
<path d="M62.7153 40.1692C62.1044 40.1692 61.6093 40.6644 61.6093 41.2752C61.6093 42.0496 60.9793 42.6796 60.2049 42.6796C59.4306 42.6796 58.8005 42.0496 58.8005 41.2752C58.8005 40.6642 58.3053 40.1692 57.6945 40.1692C57.0837 40.1692 56.5885 40.6644 56.5885 41.2752C56.5885 43.2693 58.2109 44.8916 60.2049 44.8916C62.1988 44.8916 63.8213 43.2692 63.8213 41.2752C63.8213 40.6641 63.3261 40.1692 62.7153 40.1692Z" fill="#F46036"/>
<path d="M73.0972 40.3498L69.9841 39.3526C69.5854 39.2248 69.2712 38.9065 69.1437 38.5011C68.4876 36.4152 67.4975 34.4568 66.2009 32.6803C65.61 31.8706 64.9528 31.0974 64.235 30.3613C64.6943 28.3465 64.9439 26.0664 64.9116 24.0965C64.8653 21.2784 64.3021 19.6255 63.19 19.0431C62.591 18.729 60.7682 17.7748 50.902 22.2912C50.6684 22.3981 50.4502 22.5297 50.2482 22.6805C49.583 22.5018 48.9032 22.3364 48.2192 22.188C48.1368 22.1701 48.0519 22.1542 47.9689 22.1367C48.7684 20.3901 49.2352 18.4933 49.323 16.5351C49.3503 15.9247 48.8778 15.4078 48.2674 15.3807C47.6587 15.3504 47.1402 15.8257 47.113 16.4361C46.9689 19.6558 45.6333 22.6853 43.3524 24.9663C41.9896 26.3291 40.3939 27.319 38.6932 27.9425C35.7439 27.5286 32.7398 27.5286 29.7905 27.9425C28.0897 27.319 26.4942 26.3291 25.1314 24.9663C22.6979 22.5328 21.3576 19.2973 21.3576 15.8558C21.3576 12.4141 22.6979 9.1788 25.1314 6.74532C27.5648 4.31168 30.8005 2.97144 34.2419 2.97144C37.6832 2.97144 40.9189 4.31168 43.3524 6.74532C44.3303 7.72322 45.1384 8.83918 45.7542 10.0619C46.029 10.6075 46.6941 10.8272 47.2396 10.5523C47.7853 10.2777 48.0048 9.61254 47.7301 9.06703C47.0082 7.63327 46.0616 6.32598 44.9167 5.18093C42.0654 2.3296 38.2743 0.759277 34.242 0.759277C30.2097 0.759277 26.4186 2.3296 23.5673 5.18093C20.7159 8.03242 19.1456 11.8234 19.1456 15.8557C19.1456 19.888 20.7159 23.6791 23.5673 26.5304C24.3898 27.3529 25.2845 28.0602 26.231 28.6528C26.2313 28.6528 26.2316 28.6526 26.2319 28.6526C25.5442 28.8313 24.8616 29.032 24.1867 29.2576C23.6074 29.4514 23.2947 30.0779 23.4885 30.6574C23.682 31.2368 24.3089 31.5494 24.8881 31.3558C30.92 29.3393 37.564 29.3393 43.5959 31.3558C43.7123 31.3947 43.8305 31.4131 43.9467 31.4131C44.4094 31.4131 44.8407 31.1204 44.9956 30.6574C45.1893 30.0781 44.8767 29.4514 44.2973 29.2576C43.6224 29.032 42.9398 28.8312 42.2521 28.6526C42.2524 28.6526 42.2527 28.6528 42.253 28.6528C43.1996 28.0602 44.0942 27.3529 44.9167 26.5304C45.6444 25.8028 46.2867 25.0082 46.8444 24.1637C47.1492 24.2229 47.4519 24.285 47.7501 24.3497C48.1473 24.4359 48.5428 24.5286 48.9347 24.6258C48.9223 24.6739 48.9097 24.7218 48.8995 24.7707C48.36 27.3305 48.3951 29.5944 49.0035 31.4993C49.5504 33.2116 50.5373 34.5987 51.9366 35.6225C53.5859 36.829 55.5771 37.3502 57.3807 37.3502C58.7382 37.3502 59.9897 37.0548 60.9088 36.5342C61.9485 35.9453 62.8195 34.7046 63.509 32.8417C63.8277 33.2136 64.1298 33.5947 64.4145 33.9848C65.5689 35.5662 66.4501 37.3092 67.0338 39.165C67.3765 40.2549 68.2274 41.1126 69.3096 41.4595L72.4227 42.4567C73.2395 42.7184 73.7883 43.4702 73.7883 44.3279V49.4898C73.7883 50.3475 73.2395 51.0993 72.4227 51.361L67.4071 52.9676C66.6046 53.2248 65.9255 53.7763 65.4949 54.5205C63.5244 57.926 60.4264 60.7441 56.2863 62.8966C55.808 63.1455 55.4767 63.5906 55.377 64.1182L53.7706 72.6241C53.7262 72.8585 53.5209 73.0285 53.2824 73.0285H48.0593C47.8208 73.0285 47.6155 72.8583 47.5711 72.6241L46.6814 67.9232C46.5062 66.9983 45.6387 66.3839 44.7051 66.5254C42.4552 66.8656 40.1369 67.038 37.8149 67.038C36.0874 67.038 34.382 66.9416 32.7458 66.7515C31.841 66.6474 30.9982 67.2642 30.8291 68.1575L29.9836 72.6241C29.9392 72.8585 29.734 73.0285 29.4954 73.0285H24.2724C24.0338 73.0285 23.8285 72.8583 23.7835 72.6205L22.2368 64.5868C22.1372 64.0692 21.8121 63.6291 21.3444 63.3793C14.2871 59.6118 10.5569 53.3174 10.5569 45.1771C10.5569 41.0642 11.4567 37.4273 13.2313 34.3672C14.8872 31.5114 17.3059 29.1502 20.42 27.3489C20.9487 27.043 21.1293 26.3664 20.8236 25.8375C20.5178 25.3088 19.8412 25.1284 19.3123 25.4339C13.274 28.9269 9.63211 34.3158 8.62941 41.1603V41.1601C8.52298 41.1505 8.41641 41.1413 8.31027 41.1303C8.32957 40.3918 8.19598 39.6466 7.90504 38.9235C7.26334 37.3283 5.94522 36.1771 4.54679 35.9905C3.44479 35.8429 2.39608 36.3108 1.66829 37.2724C0.613047 38.6668 0.785086 39.7703 1.11506 40.4504C1.67215 41.5983 3.10413 42.4102 5.48046 42.9207C5.41515 43.0185 5.3433 43.1168 5.26463 43.2155C3.86056 44.9764 2.20637 45.3658 1.13228 45.4025C0.5035 45.4237 0 45.9285 0 46.5577V46.5631C0 47.1837 0.489695 47.6899 1.10972 47.7182C1.18913 47.7219 1.27211 47.7239 1.3585 47.7239C2.71759 47.7239 4.89888 47.2226 6.99452 44.5948C7.32539 44.1801 7.59495 43.7425 7.80217 43.2903C8.01087 43.3139 8.21141 43.3341 8.40349 43.3519C8.40349 43.3515 8.40349 43.3512 8.40364 43.3507C8.36594 43.9501 8.34501 44.5583 8.34501 45.1771C8.34501 49.7828 9.443 53.8894 11.6083 57.3831C13.6047 60.6042 16.4632 63.2417 20.107 65.2251L21.6107 73.0353C21.8525 74.313 22.9719 75.2405 24.2724 75.2405H29.4954C30.7959 75.2405 31.9152 74.313 32.1571 73.0353L32.9215 68.9966C34.5092 69.1648 36.153 69.25 37.8148 69.25C40.0947 69.25 42.3721 69.0911 44.5915 68.7776L45.3974 73.0356C45.6393 74.3133 46.7587 75.2406 48.059 75.2406H53.2821C54.5825 75.2406 55.7019 74.3132 55.9439 73.035L57.508 64.7535C61.9266 62.417 65.2573 59.3476 67.4093 55.6283C67.5644 55.3602 67.8033 55.1636 68.0817 55.0743L73.0972 53.4678C74.8334 52.9113 76 51.3128 76 49.4895V44.3276C76 42.5045 74.8334 40.906 73.0972 40.3498ZM62.5335 27.2046C62.1077 30.8452 60.9658 33.9594 59.8184 34.6093C58.5142 35.348 55.5032 35.4907 53.2425 33.8369C50.9791 32.1813 50.2258 29.2039 51.0637 25.2267C51.0637 25.2265 51.0637 25.2265 51.0637 25.2265C51.1479 24.8271 51.4317 24.4815 51.8228 24.3025C57.3601 21.7678 60.5526 20.9388 61.7386 20.9388C61.9176 20.9388 62.0509 20.9576 62.1396 20.9923C62.4959 21.372 62.9632 23.5305 62.5335 27.2046ZM3.10546 39.4845C2.99102 39.2485 3.26117 38.8336 3.43247 38.6071C3.70396 38.2485 3.95408 38.1752 4.14304 38.1752C4.18297 38.1752 4.22023 38.1784 4.25437 38.183C4.76291 38.2509 5.47541 38.8105 5.85289 39.7488C5.9418 39.9696 6.05729 40.3355 6.0843 40.7918C4.55317 40.4746 3.36359 40.0173 3.10546 39.4845Z" fill="#F46036"/>
<path d="M35.316 14.588V10.63C36.6808 10.7276 37.1879 11.3514 37.6558 11.3514C38.2408 11.3514 38.5137 10.6106 38.5137 10.2401C38.5137 9.2846 36.6418 8.87521 35.316 8.83617V8.30951C35.316 8.07558 35.0234 7.86108 34.731 7.86108C34.3994 7.86108 34.1654 8.07558 34.1654 8.30951V8.87491C32.3131 9.06996 30.4607 10.0449 30.4607 12.5017C30.4607 14.9975 32.4106 15.6995 34.1654 16.3234V20.9055C32.1765 20.7495 31.6501 19.3846 31.0067 19.3846C30.5192 19.3846 30.1098 20.0281 30.1098 20.4961C30.1098 21.4514 31.7477 22.7578 34.1654 22.7969V23.4013C34.1654 23.6352 34.3995 23.8497 34.731 23.8497C35.0235 23.8497 35.316 23.6352 35.316 23.4013V22.7384C37.4218 22.4458 38.8646 21.12 38.8646 18.7217C38.8646 16.07 37.0123 15.2119 35.316 14.588ZM34.2824 14.2176C33.249 13.8277 32.4106 13.4183 32.4106 12.3069C32.4106 11.293 33.1905 10.8055 34.2824 10.6691V14.2176ZM35.1988 20.8664V16.7523C36.1542 17.1617 36.9146 17.7077 36.9146 18.936C36.9146 20.0477 36.2517 20.6715 35.1988 20.8664Z" fill="#F46036"/>
</svg>
