<svg width="76" height="76" viewBox="0 0 76 76" fill="none" xmlns="http://www.w3.org/2000/svg">
<g clip-path="url(#clip0)">
<path d="M67.8129 66.6435L58.1986 49.991C59.7932 48.6482 60.8953 46.7384 61.1897 44.5743C61.3896 43.1028 62.1465 41.7917 63.3208 40.8827C66.365 38.5263 67.4728 34.3922 66.0148 30.8291C65.4522 29.4547 65.4522 27.9408 66.0148 26.5665C67.4728 23.0035 66.365 18.8695 63.3208 16.513C62.1465 15.6039 61.3895 14.2929 61.1897 12.8214C60.6708 9.00682 57.6443 5.98031 53.8297 5.46174C52.3584 5.26161 51.0473 4.50476 50.1384 3.33044C47.7818 0.286121 43.6481 -0.82154 40.0847 0.636487C38.7103 1.199 37.1964 1.199 35.8221 0.636487C32.2594 -0.821689 28.1251 0.286121 25.7686 3.33044C24.8595 4.50476 23.5485 5.26161 22.0769 5.46174C18.2623 5.98046 15.2359 9.00682 14.7173 12.8215C14.5172 14.293 13.7604 15.6041 12.586 16.5131C9.54171 18.8696 8.43405 23.0038 9.89208 26.5667C10.4546 27.941 10.4546 29.455 9.89208 30.8293C8.4339 34.3922 9.54171 38.5263 12.586 40.8828C13.7604 41.7919 14.5172 43.1029 14.7173 44.5743C15.0154 46.7669 16.1431 48.6979 17.7716 50.0431L8.18731 66.6435C7.88712 67.1636 7.92958 67.8132 8.29524 68.2895C8.66075 68.7657 9.27701 68.9752 9.85734 68.8198L18.2113 66.5813L20.4402 74.8994C20.5956 75.4794 21.0851 75.9086 21.6804 75.987C21.7454 75.9956 21.8103 75.9997 21.8746 75.9997C22.3998 75.9997 22.8924 75.7206 23.1598 75.2575L33.5018 57.3447C34.286 57.2602 35.0669 57.0683 35.822 56.7592C37.1964 56.1967 38.7104 56.1967 40.0846 56.7592C40.8718 57.0815 41.6872 57.2779 42.5051 57.3563L52.8403 75.2575C53.1078 75.7208 53.6002 75.9997 54.1255 75.9997C54.1899 75.9997 54.2546 75.9956 54.3198 75.987C54.9151 75.9086 55.4046 75.4794 55.5601 74.8994L57.789 66.5813L66.143 68.8198C66.7226 68.9752 67.3395 68.766 67.705 68.2895C68.0705 67.8132 68.1131 67.1636 67.8129 66.6435ZM22.3804 70.669L20.6949 64.3789C20.5929 63.9985 20.3443 63.6743 20.0033 63.4774C19.6622 63.2806 19.2572 63.2273 18.8767 63.3291L12.5507 65.0241L20.3512 51.5132C20.9028 51.7105 21.4801 51.8529 22.0768 51.9341C23.5483 52.1342 24.8594 52.891 25.7684 54.0654C26.9221 55.5558 28.5021 56.5809 30.2325 57.069L22.3804 70.669ZM34.6972 54.0113C32.3651 54.9659 29.659 54.2407 28.1163 52.2481C26.7276 50.4541 24.7247 49.2976 22.4767 48.992C19.9798 48.6525 17.9986 46.6715 17.6592 44.1744C17.3535 41.9264 16.1972 39.9236 14.4032 38.5348C12.4104 36.9923 11.6853 34.286 12.6398 31.9539C13.4992 29.8542 13.4992 27.5416 12.6398 25.4419C11.6853 23.1098 12.4104 20.4035 14.4032 18.861C16.1972 17.4723 17.3535 15.4696 17.6592 13.2215C17.9987 10.7245 19.9798 8.7433 22.4767 8.40377C24.7247 8.09824 26.7276 6.94189 28.1163 5.14789C29.2042 3.74242 30.8704 2.96761 32.5765 2.96761C33.2895 2.96761 34.0097 3.10315 34.6971 3.38448C36.7969 4.24377 39.1096 4.24377 41.2091 3.38448C43.5412 2.42989 46.2476 3.15511 47.7901 5.14789C49.1788 6.94189 51.1815 8.09824 53.4294 8.40377C55.9263 8.7433 57.9075 10.7244 58.247 13.2215C58.5527 15.4696 59.7091 17.4723 61.5031 18.861C63.4958 20.4035 64.2209 23.1096 63.2665 25.4419C62.4072 27.5416 62.4072 29.8542 63.2665 31.9539C64.2209 34.286 63.4957 36.9923 61.5031 38.5348C59.7091 39.9235 58.5527 41.9262 58.247 44.1742C57.9075 46.6713 55.9263 48.6525 53.4295 48.9919C51.1814 49.2974 49.1786 50.4538 47.7899 52.2479C46.2473 54.2408 43.5412 54.9658 41.2091 54.0112C39.1095 53.152 36.7971 53.152 34.6972 54.0113ZM57.1233 63.3291C56.331 63.1167 55.5174 63.587 55.3051 64.3789L53.6195 70.669L45.7541 57.0455C47.4529 56.5485 49.0023 55.5327 50.1383 54.0654C51.0472 52.8909 52.3582 52.134 53.8296 51.9341C54.4542 51.8491 55.0572 51.6958 55.6319 51.4839L63.4492 65.0241L57.1233 63.3291Z" fill="#F46036"/>
<path d="M31.2067 23.2064L26.5876 27.8253C26.3092 28.1037 26.1528 28.4814 26.1528 28.8751C26.1528 29.2688 26.3092 29.6465 26.5876 29.9249L35.2507 38.5881C35.5291 38.8665 35.9068 39.0229 36.3005 39.0229C36.6942 39.0229 37.0719 38.8665 37.3502 38.5881L49.4126 26.5257C49.9924 25.946 49.9924 25.0059 49.4126 24.4262L44.7937 19.8072C44.5152 19.5288 44.1377 19.3723 43.744 19.3723C43.3503 19.3723 42.9726 19.5288 42.6942 19.8072L36.3006 26.2009L33.3065 23.2066C33.0281 22.9282 32.6504 22.7718 32.2567 22.7718C31.8627 22.7716 31.485 22.9281 31.2067 23.2064ZM35.2506 29.3502C35.5289 29.6285 35.9066 29.785 36.3003 29.785C36.694 29.785 37.0717 29.6285 37.3501 29.3502L43.7437 22.9564L46.2632 25.476L36.3003 35.4388L29.7369 28.8752L32.2564 26.3559L35.2506 29.3502Z" fill="#F46036"/>
<path d="M57.2999 29.1974C57.2999 25.2537 56.118 21.4608 53.8822 18.2289C51.6988 15.0731 48.6659 12.6598 45.1114 11.2504C44.3489 10.9482 43.4864 11.321 43.1841 12.0832C42.8819 12.8454 43.2548 13.7083 44.0168 14.0105C50.2823 16.495 54.3308 22.4563 54.3308 29.1974C54.3308 38.2021 47.0049 45.528 38.0002 45.528C28.9955 45.528 21.6696 38.2021 21.6696 29.1974C21.6696 22.4561 25.7181 16.4949 31.9835 14.0104C32.7457 13.7081 33.1187 12.8453 32.8164 12.0831C32.5141 11.3209 31.6511 10.9479 30.8891 11.2502C27.3345 12.6598 24.3016 15.0729 22.1182 18.2287C19.8823 21.4607 18.7004 25.2536 18.7004 29.1973C18.7004 39.8392 27.3583 48.4971 38.0002 48.4971C48.6421 48.4972 57.2999 39.8393 57.2999 29.1974Z" fill="#F46036"/>
<path d="M38 12.8664C38.3905 12.8664 38.7735 12.709 39.0495 12.4314C39.3256 12.1553 39.4846 11.7738 39.4846 11.3818C39.4846 10.9914 39.3258 10.6083 39.0495 10.3322C38.7735 10.0561 38.3905 9.89722 38 9.89722C37.6096 9.89722 37.2266 10.0561 36.9504 10.3322C36.6743 10.6083 36.5154 10.9914 36.5154 11.3818C36.5154 11.7738 36.6743 12.1553 36.9504 12.4314C37.2266 12.709 37.6096 12.8664 38 12.8664Z" fill="#F46036"/>
</g>
<defs>
<clipPath id="clip0">
<rect width="76" height="76" rx="25" fill="white"/>
</clipPath>
</defs>
</svg>
