<svg width="83" height="83" viewBox="0 0 83 83" fill="none" xmlns="http://www.w3.org/2000/svg">
<path d="M49.2812 80.4062H59.6562C60.0002 80.4062 60.3301 80.2696 60.5733 80.0264C60.8165 79.7832 60.9531 79.4533 60.9531 79.1094V74.9957C61.7111 74.7267 62.3672 74.2299 62.8316 73.5732C63.296 72.9166 63.5458 72.1324 63.5469 71.3281V6.48438C63.5457 5.45289 63.1354 4.46399 62.406 3.73461C61.6766 3.00524 60.6877 2.59495 59.6562 2.59375H23.3438C22.3122 2.59491 21.3233 3.00518 20.5939 3.73457C19.8646 4.46395 19.4543 5.45287 19.4531 6.48438V71.3281C19.4542 72.1324 19.704 72.9166 20.1684 73.5732C20.6328 74.2299 21.2889 74.7267 22.0469 74.9957V79.1094C22.0469 79.4533 22.1835 79.7832 22.4267 80.0264C22.6699 80.2696 22.9998 80.4062 23.3438 80.4062H33.7188C34.0627 80.4062 34.3926 80.2696 34.6358 80.0264C34.879 79.7832 35.0156 79.4533 35.0156 79.1094V75.2188H47.9844V79.1094C47.9844 79.4533 48.121 79.7832 48.3642 80.0264C48.6074 80.2696 48.9373 80.4062 49.2812 80.4062ZM50.5781 77.8125V75.2188H58.3594V77.8125H50.5781ZM59.6562 72.625H23.3438C22.9999 72.6246 22.6703 72.4879 22.4271 72.2447C22.184 72.0016 22.0473 71.672 22.0469 71.3281V31.125H24.6406V50.5781C24.6406 51.61 25.0505 52.5996 25.7802 53.3292C26.5098 54.0588 27.4994 54.4688 28.5312 54.4688C29.5631 54.4688 30.5527 54.0588 31.2823 53.3292C32.012 52.5996 32.4219 51.61 32.4219 50.5781V31.125H60.9531V71.3281C60.9527 71.672 60.816 72.0016 60.5729 72.2447C60.3297 72.4879 60.0001 72.6246 59.6562 72.625ZM27.2344 31.125H29.8281V50.5781C29.8281 50.9221 29.6915 51.2519 29.4483 51.4952C29.2051 51.7384 28.8752 51.875 28.5312 51.875C28.1873 51.875 27.8574 51.7384 27.6142 51.4952C27.371 51.2519 27.2344 50.9221 27.2344 50.5781V31.125ZM29.8281 28.5312H27.2344V14.2656C27.2344 13.9217 27.371 13.5918 27.6142 13.3486C27.8574 13.1054 28.1873 12.9688 28.5312 12.9688C28.8752 12.9688 29.2051 13.1054 29.4483 13.3486C29.6915 13.5918 29.8281 13.9217 29.8281 14.2656V28.5312ZM23.3438 5.1875H59.6562C60.0001 5.18789 60.3297 5.32464 60.5729 5.56777C60.816 5.8109 60.9527 6.14054 60.9531 6.48438V28.5312H32.4219V14.2656C32.4219 13.2338 32.012 12.2442 31.2823 11.5145C30.5527 10.7849 29.5631 10.375 28.5312 10.375C27.4994 10.375 26.5098 10.7849 25.7802 11.5145C25.0505 12.2442 24.6406 13.2338 24.6406 14.2656V28.5312H22.0469V6.48438C22.0473 6.14054 22.184 5.8109 22.4271 5.56777C22.6703 5.32464 22.9999 5.18789 23.3438 5.1875ZM32.4219 77.8125H24.6406V75.2188H32.4219V77.8125Z" fill="black"/>
</svg>
