<svg width="120" height="120" viewBox="0 0 120 120" fill="none" xmlns="http://www.w3.org/2000/svg">
<g clip-path="url(#clip0)">
<path d="M119.926 49.5045C117.451 35.2299 57.7378 37.467 20.1942 53.2608L17.2106 54.5696C5.87927 59.7652 -0.7812 65.5369 0.0733316 70.4944C2.56357 84.8693 62.8181 82.4487 100.143 66.5954L104.594 64.5762C114.822 59.6054 120.736 54.1939 119.926 49.5045Z" fill="#556675"/>
<path d="M6.23786 70.4945C5.38333 65.537 12.0438 59.7651 23.3751 54.5697L26.3587 53.2609C45.0115 45.4143 70.9929 40.4542 91.8487 40.0012C69.5634 39.4883 40.315 44.7967 20.1942 53.2609L17.2106 54.5697C5.87927 59.7653 -0.7812 65.537 0.0733316 70.4945C1.20068 77.0022 14.9793 80.4186 34.2993 79.9984C18.2667 79.629 7.24122 76.2864 6.23786 70.4945Z" fill="#16191B"/>
<path d="M100.448 59.4893V60.7054C100.448 60.9049 100.609 61.0666 100.809 61.0666H101.502C101.635 61.0666 101.743 61.1747 101.743 61.3078V62.9088C101.749 63.0736 101.739 63.2508 101.712 63.3923C101.659 63.7366 101.335 64.319 100.416 64.319C99.5006 64.319 99.183 63.7366 99.1259 63.3923C99.1027 63.2508 99.0916 63.0738 99.0916 62.9088V57.0942C99.0916 56.8868 99.1064 56.6634 99.1502 56.4949C99.2126 56.1848 99.4861 55.5719 100.409 55.5719C101.377 55.5719 101.617 56.2153 101.671 56.4949C101.709 56.6768 101.713 56.9845 101.713 56.9845V57.3626C101.713 57.5428 101.859 57.6888 102.039 57.6888H104.49C104.715 57.6888 104.898 57.506 104.898 57.2805V57.2714C104.898 57.2714 104.911 56.8357 104.873 56.429C104.635 54.0424 102.68 53.2905 100.435 53.2905C98.1884 53.2905 96.273 54.0511 95.9946 56.429C95.9702 56.6487 95.9311 57.0405 95.9311 57.2714V62.6219C95.9311 62.8526 95.9372 63.0333 95.9798 63.4605C96.1788 65.681 98.0234 66.5282 100.143 66.5955L104.594 64.5764C104.74 64.2515 104.838 63.8805 104.88 63.4605C104.914 63.0333 104.917 62.8526 104.926 62.6219V59.5038C104.926 59.3421 104.795 59.2111 104.633 59.2111H100.726C100.572 59.2108 100.448 59.3355 100.448 59.4893Z" fill="#F2F2F2"/>
<path d="M25.4667 61.8612C24.9356 59.1888 20.1344 58.4002 19.7742 56.9098C19.7156 56.6545 19.729 56.3836 19.762 56.2432C19.8511 55.8368 20.1234 55.3849 20.9182 55.3849C21.6616 55.3849 22.0976 55.8488 22.0976 56.5423V57.0504C22.0976 57.2039 22.222 57.3286 22.3758 57.3286H24.8548C25.0748 57.3286 25.2532 57.1502 25.2532 56.9302V56.4326C25.2532 53.6688 22.7726 53.2268 20.9817 53.2268C20.7119 53.2268 20.4483 53.2366 20.1942 53.261L17.2106 54.5698C16.8846 54.9628 16.6601 55.4487 16.5623 56.0531C16.4695 56.6243 16.4548 57.1249 16.5879 57.7683C17.1347 60.3673 21.6333 61.1229 22.2876 62.7661C22.4098 63.0738 22.3706 63.4645 22.3109 63.705C22.207 64.1348 21.9213 64.5644 21.0755 64.5644C20.2868 64.5644 19.8119 64.103 19.8119 63.4083L19.808 62.4377C19.8075 62.2973 19.6936 62.1839 19.5532 62.1839H16.7548C16.5663 62.1839 16.4135 62.3367 16.4135 62.5251V63.1568C16.4135 66 18.6342 66.8557 21.011 66.8557C23.2987 66.8557 25.1775 66.0731 25.4826 63.9441C25.6352 62.8477 25.5204 62.1298 25.4667 61.8612Z" fill="#F2F2F2"/>
<path d="M34.485 66.0889L32.8887 55.1831C32.8734 55.0795 32.7241 55.0793 32.7087 55.1829L31.0673 66.1256C31.0479 66.2562 30.9356 66.3525 30.8037 66.3525H27.8693C27.7378 66.3525 27.6384 66.2332 27.6621 66.1039L29.8882 54.0216C29.9299 53.7954 30.1273 53.6311 30.3572 53.6311H35.2514C35.4441 53.6311 35.6093 53.7687 35.6442 53.9583L37.8705 66.0931C37.8954 66.2281 37.7916 66.3528 37.6542 66.3528H34.7894C34.6369 66.3523 34.5073 66.2403 34.485 66.0889Z" fill="#F2F2F2"/>
<path d="M51.3366 65.9381L51.2574 55.1761C51.2569 55.1067 51.1563 55.0978 51.1439 55.166L49.1248 66.0907C49.0966 66.2423 48.9645 66.3525 48.8102 66.3525H46.2642C46.0341 66.3525 45.8367 66.1882 45.7948 65.9618L43.8134 55.2288C43.7995 55.1534 43.6884 55.1632 43.688 55.2398L43.6081 66.1003C43.6071 66.2398 43.4937 66.3525 43.354 66.3525H40.7777C40.5942 66.3525 40.4463 66.2016 40.4503 66.018L40.7109 54.0047C40.7154 53.797 40.8851 53.6309 41.093 53.6309H45.5255C45.7294 53.6309 45.9031 53.779 45.9354 53.9803L47.352 62.8024C47.3747 62.9435 47.5774 62.9435 47.6002 62.8024L49.0212 53.9527C49.0509 53.7673 49.2108 53.6311 49.3985 53.6311H53.9545C54.1059 53.6311 54.2297 53.752 54.233 53.9034L54.5016 65.9147C54.507 66.1549 54.3136 66.3527 54.0734 66.3527H51.7542C51.5248 66.3525 51.3384 66.1676 51.3366 65.9381Z" fill="#F2F2F2"/>
<path d="M66.5775 63.9073C66.2784 66.0132 64.4118 66.7859 62.1497 66.7859C59.7911 66.7859 57.5997 65.9398 57.5997 63.1285V62.4226C57.5997 62.2758 57.7188 62.1568 57.8655 62.1568H60.6452C60.8186 62.1568 60.9595 62.2974 60.9595 62.4711V63.3776C60.9595 64.0637 61.4343 64.519 62.2207 64.519C63.0618 64.519 63.3438 64.0953 63.4404 63.6729C63.4989 63.4386 63.5306 63.0455 63.4172 62.7378C62.7726 61.1129 58.3193 60.3659 57.7772 57.7937C57.6368 57.1576 57.6576 56.6583 57.7455 56.098C58.0814 54.0385 59.9001 53.2986 62.1269 53.2986C63.8995 53.2986 66.3422 53.7282 66.3422 56.4713V57.0031C66.3422 57.1967 66.1851 57.3537 65.9915 57.3537H63.5458C63.367 57.3537 63.2222 57.2089 63.2222 57.0301V56.5775C63.2222 55.8926 62.7937 55.4335 62.0636 55.4335C61.2799 55.4335 61.0075 55.8779 60.9147 56.2845C60.8854 56.4223 60.8721 56.6898 60.9269 56.9438C61.2869 58.4136 66.0323 59.2072 66.5547 61.8465C66.6115 62.1115 66.719 62.8196 66.5775 63.9073Z" fill="#F2F2F2"/>
<path d="M78.4469 63.5911C78.2224 65.9679 76.3619 66.7383 74.0313 66.7383C71.7033 66.7383 69.8416 65.9679 69.6218 63.5911C69.6073 63.4641 69.5902 62.9855 69.5937 62.7513V54.1195C69.5937 53.8498 69.8123 53.6311 70.0821 53.6311H72.3494C72.5939 53.6311 72.7922 53.8294 72.7922 54.0738V63.0431C72.7861 63.2056 72.7922 63.3923 72.8238 63.5266C72.885 63.8416 73.1583 64.4496 74.0311 64.4496C74.9137 64.4496 75.1786 63.8416 75.2459 63.5266C75.274 63.3923 75.2801 63.2056 75.274 63.0431V54.0211C75.274 53.8057 75.4486 53.6311 75.664 53.6311H78.0368C78.2773 53.6311 78.4723 53.8261 78.4723 54.0666V62.7513C78.4861 62.9855 78.4664 63.4641 78.4469 63.5911Z" fill="#F2F2F2"/>
<path d="M92.2108 66.2194H88.3997C88.2281 66.2194 88.0767 66.1071 88.027 65.9428L85.1205 56.3501C85.0863 56.2369 84.9192 56.2631 84.9213 56.3812L85.0826 65.8101C85.0863 66.0349 84.9054 66.2191 84.6806 66.2191H82.3823C82.1625 66.2191 81.9841 66.0408 81.9841 65.8209V54.0539C81.9841 53.82 82.1737 53.6306 82.4074 53.6306H86.2622C86.5092 53.6306 86.7267 53.7937 86.7956 54.0309L89.5186 63.394C89.5404 63.4687 89.6508 63.4521 89.6496 63.3743L89.4954 54.0635C89.4914 53.8256 89.6833 53.6304 89.9212 53.6304H92.2919C92.4703 53.6304 92.6147 53.775 92.6147 53.9531V65.8155C92.614 66.0389 92.4335 66.2194 92.2108 66.2194Z" fill="#F2F2F2"/>
</g>
<defs>
<clipPath id="clip0">
<rect width="120" height="120" fill="white"/>
</clipPath>
</defs>
</svg>
