<svg width="83" height="83" viewBox="0 0 83 83" fill="none" xmlns="http://www.w3.org/2000/svg">
<g clip-path="url(#clip0)">
<path d="M63.9792 72.625H19.0209C10.4407 72.625 3.45837 65.6427 3.45837 57.0625V29.3959C3.45837 20.8157 10.4407 13.8334 19.0209 13.8334H63.9792C72.5593 13.8334 79.5417 20.8157 79.5417 29.3959V57.0625C79.5417 65.6427 72.5593 72.625 63.9792 72.625ZM19.0209 17.2917C12.3463 17.2917 6.91671 22.7213 6.91671 29.3959V57.0625C6.91671 63.7371 12.3463 69.1667 19.0209 69.1667H63.9792C70.6538 69.1667 76.0834 63.7371 76.0834 57.0625V29.3959C76.0834 22.7213 70.6538 17.2917 63.9792 17.2917H19.0209Z" fill="black"/>
<path d="M43.2291 62.25H22.4791C17.7101 62.25 13.8333 58.3698 13.8333 53.6042V32.8542C13.8333 28.0886 17.7101 24.2084 22.4791 24.2084H43.2291C47.9982 24.2084 51.875 28.0886 51.875 32.8542V53.6042C51.875 58.3698 47.9982 62.25 43.2291 62.25ZM22.4791 27.6667C19.6191 27.6667 17.2916 29.9942 17.2916 32.8542V53.6042C17.2916 56.4642 19.6191 58.7917 22.4791 58.7917H43.2291C46.0892 58.7917 48.4166 56.4642 48.4166 53.6042V32.8542C48.4166 29.9942 46.0892 27.6667 43.2291 27.6667H22.4791Z" fill="black"/>
<path d="M67.4375 41.5H60.5209C59.5664 41.5 58.7917 40.7253 58.7917 39.7708C58.7917 38.8163 59.5664 38.0416 60.5209 38.0416H67.4375C68.392 38.0416 69.1667 38.8163 69.1667 39.7708C69.1667 40.7253 68.392 41.5 67.4375 41.5Z" fill="black"/>
<path d="M67.4375 31.125H60.5209C59.5664 31.125 58.7917 30.3503 58.7917 29.3958C58.7917 28.4413 59.5664 27.6666 60.5209 27.6666H67.4375C68.392 27.6666 69.1667 28.4413 69.1667 29.3958C69.1667 30.3503 68.392 31.125 67.4375 31.125Z" fill="black"/>
<path d="M67.4375 51.875H60.5209C59.5664 51.875 58.7917 51.1003 58.7917 50.1458C58.7917 49.1913 59.5664 48.4166 60.5209 48.4166H67.4375C68.392 48.4166 69.1667 49.1913 69.1667 50.1458C69.1667 51.1003 68.392 51.875 67.4375 51.875Z" fill="black"/>
<path d="M19.0208 83C18.8375 83 18.6577 82.9724 18.4744 82.9101C17.5683 82.6092 17.0807 81.6305 17.3816 80.7244L20.8399 70.3494C21.1477 69.4434 22.1264 68.9592 23.029 69.2566C23.9351 69.5575 24.4228 70.5362 24.1219 71.4423L20.6635 81.8173C20.418 82.5435 19.7436 83 19.0208 83Z" fill="black"/>
<path d="M41.5 17.2916C40.9674 17.2916 40.4383 17.0461 40.1028 16.5792C39.5426 15.808 39.712 14.7255 40.4832 14.1653L59.5041 0.331962C60.2753 -0.228288 61.3577 -0.0622881 61.918 0.712379C62.4782 1.48359 62.3088 2.56605 61.5376 3.12629L42.5167 16.9596C42.2089 17.1844 41.8562 17.2916 41.5 17.2916Z" fill="black"/>
<path d="M41.5 17.2917C40.9259 17.2917 40.3622 17.0046 40.0336 16.479L31.3878 2.64564C30.8829 1.83639 31.1284 0.767767 31.9377 0.26285C32.7435 -0.242066 33.8156 1.68867e-05 34.3205 0.812725L42.9663 14.6461C43.4712 15.4553 43.2257 16.5239 42.4164 17.0288C42.1329 17.2087 41.8147 17.2917 41.5 17.2917Z" fill="black"/>
<path d="M63.9792 83C63.2564 83 62.582 82.5435 62.3365 81.8173L58.8781 71.4423C58.5773 70.5362 59.0684 69.5575 59.971 69.2566C60.884 68.9592 61.8558 69.4434 62.1601 70.3494L65.6185 80.7244C65.9193 81.6305 65.4282 82.6092 64.5256 82.9101C64.3423 82.9724 64.1625 83 63.9792 83Z" fill="black"/>
</g>
<defs>
<clipPath id="clip0">
<rect width="83" height="83" fill="white"/>
</clipPath>
</defs>
</svg>
