<svg width="83" height="83" viewBox="0 0 83 83" fill="none" xmlns="http://www.w3.org/2000/svg">
<path d="M79.1094 66.6578V50.5782C79.1094 50.5738 79.1094 50.5696 79.1094 50.5652C79.1094 50.5432 79.1074 50.5211 79.106 50.4989C79.1045 50.4767 79.1035 50.4524 79.1009 50.4295C79.1009 50.4255 79.1009 50.4214 79.1 50.4174L77.9451 41.1784C77.8913 40.7521 77.7325 40.3457 77.4831 39.9958C77.2336 39.6459 76.9012 39.3634 76.5156 39.1736V35.0157C76.5156 34.6717 76.379 34.3419 76.1358 34.0986C75.8926 33.8554 75.5627 33.7188 75.2188 33.7188H73.9219V26.8142C73.9189 24.175 72.8692 21.6446 71.0029 19.7784C69.1367 17.9121 66.6063 16.8624 63.9671 16.8594H60.4259C57.7055 16.8594 55.0664 17.787 52.9444 19.4892C50.8223 21.1914 49.3442 23.5664 48.7541 26.222L48.6396 26.7367C48.5288 27.2469 48.2462 27.7036 47.8389 28.0303C47.4317 28.3569 46.9246 28.5338 46.4025 28.5313H44.5125C43.8438 28.5314 43.1831 28.3873 42.5752 28.1086C41.9674 27.83 41.4269 27.4236 40.9905 26.9169C40.5542 26.4103 40.2323 25.8155 40.0468 25.1731C39.8613 24.5307 39.8167 23.8559 39.9159 23.1947L41.2338 14.4083C41.4525 12.9414 41.3517 11.4446 40.9383 10.0203C40.5249 8.59601 39.8087 7.2778 38.8387 6.15591C37.8687 5.03401 36.6678 4.13491 35.3181 3.52011C33.9684 2.90531 32.5019 2.58933 31.0188 2.5938H30.7888C28.406 2.59382 26.1019 3.44676 24.2935 4.99829C22.4851 6.54981 21.2917 8.69742 20.9295 11.0525L11.8606 68.7344H8.75391C7.1207 68.7363 5.55491 69.3859 4.40006 70.5407C3.2452 71.6956 2.59559 73.2614 2.59375 74.8946V79.1094C2.59375 79.4534 2.73038 79.7832 2.9736 80.0264C3.21681 80.2697 3.54667 80.4063 3.89062 80.4063H27.2344C27.5783 80.4063 27.9082 80.2697 28.1514 80.0264C28.3946 79.7832 28.5312 79.4534 28.5312 79.1094V74.8946C28.5294 73.2614 27.8798 71.6956 26.7249 70.5407C25.5701 69.3859 24.0043 68.7363 22.3711 68.7344H19.6739L29.2222 11.9457C29.3346 11.4379 29.6399 10.9937 30.0737 10.7067C30.5075 10.4197 31.0357 10.3124 31.5471 10.4075C32.0584 10.5025 32.5128 10.7925 32.8145 11.2162C33.1161 11.6399 33.2414 12.1642 33.1638 12.6785L31.6951 22.4699C31.4378 24.1849 31.5535 25.9352 32.0345 27.6014C32.5154 29.2676 33.3502 30.8104 34.4818 32.1244C35.6135 33.4385 37.0154 34.4929 38.5918 35.2157C40.1682 35.9385 41.882 36.3126 43.6162 36.3125H46.0154C48.7081 36.3127 51.3204 35.3945 53.4208 33.7096C55.5212 32.0247 56.9843 29.6739 57.5683 27.0452C57.7168 26.3616 58.0956 25.7497 58.6413 25.312C59.187 24.8743 59.8665 24.6373 60.566 24.6407H63.07C63.8841 24.6416 64.6646 24.9654 65.2403 25.541C65.8159 26.1167 66.1397 26.8972 66.1406 27.7113V33.7188H64.8438C64.4998 33.7188 64.1699 33.8554 63.9267 34.0986C63.6835 34.3419 63.5469 34.6717 63.5469 35.0157V38.9063H53.0198C52.3879 38.9072 51.7779 39.1384 51.3042 39.5566C50.8304 39.9749 50.5254 40.5515 50.4462 41.1784L49.2913 50.4174C49.2913 50.4214 49.2913 50.4255 49.2903 50.4295C49.2877 50.4524 49.2866 50.4757 49.2853 50.4989C49.284 50.5221 49.2821 50.5432 49.2819 50.5652C49.2819 50.5696 49.2819 50.5738 49.2819 50.5782V69.7251L48.122 72.045C48.0317 72.225 47.9846 72.4236 47.9844 72.625V77.8125C47.9844 78.1565 48.121 78.4864 48.3642 78.7296C48.6074 78.9728 48.9373 79.1094 49.2812 79.1094C49.2812 79.1094 66.5798 79.1042 66.636 79.0968C68.3705 80.1459 70.4062 80.5841 72.4187 80.3414C74.4312 80.0988 76.3045 79.1892 77.7398 77.7579C79.1752 76.3265 80.0899 74.4557 80.3381 72.4439C80.5863 70.4321 80.1537 68.3951 79.1094 66.6578ZM18.6862 58.3594H16.1249L16.9438 53.1719H19.5052L18.6862 58.3594ZM25.9375 77.8125H5.1875V76.5157H25.9375V77.8125ZM25.8026 73.9219H5.32238C5.53501 73.1755 5.98491 72.5187 6.60403 72.0507C7.22315 71.5827 7.97782 71.3291 8.75391 71.3282H22.3711C23.1472 71.3291 23.9018 71.5827 24.521 72.0507C25.1401 72.5187 25.59 73.1755 25.8026 73.9219ZM14.4864 68.7344L15.715 60.9532H18.2764L17.0477 68.7344H14.4864ZM19.9148 50.5782H17.3535L21.8583 22.0469H24.4197L19.9148 50.5782ZM63.07 22.0469H60.566C59.2756 22.0407 58.0222 22.4779 57.0156 23.2853C56.009 24.0928 55.3103 25.2215 55.0365 26.4826C54.5897 28.5398 53.4498 30.3812 51.8077 31.6984C50.1655 33.0157 48.1207 33.729 46.0156 33.7188H43.6163C42.2554 33.7188 40.9104 33.4251 39.6733 32.8579C38.4361 32.2906 37.336 31.4631 36.4479 30.4318C35.5597 29.4005 34.9046 28.1898 34.5271 26.8822C34.1497 25.5746 34.0588 24.201 34.2607 22.855L35.7294 13.0636C35.9066 11.8846 35.619 10.6827 34.9273 9.71157C34.2356 8.74042 33.1937 8.07582 32.0215 7.85793C30.8493 7.64004 29.6382 7.88587 28.6437 8.54359C27.6492 9.20131 26.949 10.2195 26.6907 11.3835L24.8972 19.4532H22.2617L23.4937 11.4469C23.7539 9.7008 24.6346 8.10693 25.9744 6.95734C27.3142 5.80776 29.0234 5.17945 30.7888 5.18755H31.0188C32.1288 5.18307 33.2267 5.41855 34.2372 5.87786C35.2478 6.33718 36.1471 7.00947 36.8736 7.84871C37.6001 8.68794 38.1367 9.67428 38.4465 10.7402C38.7564 11.8061 38.8322 12.9264 38.6688 14.0243L37.3508 22.8106C37.1964 23.8408 37.266 24.8922 37.555 25.893C37.844 26.8938 38.3456 27.8205 39.0254 28.6098C39.7053 29.399 40.5474 30.0323 41.4944 30.4664C42.4413 30.9005 43.4708 31.1252 44.5125 31.125H46.4025C47.5155 31.1304 48.5966 30.7533 49.4648 30.0569C50.3329 29.3604 50.9356 28.3869 51.1718 27.2993L51.2861 26.7847C51.7388 24.7004 52.8937 22.8348 54.5575 21.5002C56.2213 20.1656 58.293 19.4429 60.4259 19.4532H63.9671C65.9187 19.4554 67.7897 20.2316 69.1697 21.6116C70.5497 22.9916 71.3259 24.8626 71.3281 26.8142V33.7188H68.7344V27.7113C68.7327 26.2096 68.1353 24.7698 67.0734 23.7079C66.0115 22.646 64.5717 22.0486 63.07 22.0469ZM66.1406 36.3125H73.9219V38.9063H66.1406V36.3125ZM64.8438 41.5H75.3708L76.3435 49.2813H71.3281V45.3907C71.3281 45.0467 71.1915 44.7168 70.9483 44.4736C70.7051 44.2304 70.3752 44.0938 70.0312 44.0938H64.8438C64.4998 44.0938 64.1699 44.2304 63.9267 44.4736C63.6835 44.7168 63.5469 45.0467 63.5469 45.3907V49.2813H52.0472L53.0198 41.5H64.8438ZM68.7344 51.875H66.1406V46.6875H68.7344V51.875ZM50.5781 72.9313L51.738 70.6113C51.8281 70.4312 51.875 70.2327 51.875 70.0313V51.875H63.5469V53.1719C63.5469 53.5159 63.6835 53.8457 63.9267 54.0889C64.1699 54.3322 64.4998 54.4688 64.8438 54.4688H70.0312C70.3752 54.4688 70.7051 54.3322 70.9483 54.0889C71.1915 53.8457 71.3281 53.5159 71.3281 53.1719V51.875H76.5156V57.0625H62.5742C61.1129 57.0642 59.7119 57.6454 58.6786 58.6787C57.6454 59.712 57.0641 61.113 57.0625 62.5743V76.5157H50.5781V72.9313ZM59.6562 62.5743C59.6572 61.8006 59.9649 61.059 60.5119 60.5119C61.0589 59.9649 61.8006 59.6572 62.5742 59.6563H76.5156V63.8846C74.7687 62.6644 72.648 62.0981 70.5254 62.2851C68.4027 62.472 66.4137 63.4002 64.9069 64.907C63.4002 66.4137 62.472 68.4028 62.285 70.5254C62.0981 72.6481 62.6644 74.7688 63.8846 76.5157H59.6562V62.5743ZM71.3281 77.8125C70.0456 77.8125 68.7919 77.4322 67.7256 76.7197C66.6592 76.0072 65.8281 74.9945 65.3373 73.8096C64.8466 72.6248 64.7181 71.321 64.9683 70.0631C65.2185 68.8053 65.8361 67.6499 66.743 66.743C67.6498 65.8362 68.8052 65.2186 70.0631 64.9684C71.3209 64.7182 72.6247 64.8466 73.8096 65.3374C74.9945 65.8282 76.0072 66.6593 76.7197 67.7256C77.4322 68.792 77.8125 70.0457 77.8125 71.3282C77.8106 73.0473 77.1268 74.6955 75.9111 75.9112C74.6955 77.1268 73.0473 77.8106 71.3281 77.8125Z" fill="black"/>
<path d="M71.3281 67.4375C70.5586 67.4375 69.8064 67.6657 69.1666 68.0932C68.5268 68.5207 68.0281 69.1283 67.7337 69.8393C67.4392 70.5502 67.3621 71.3324 67.5123 72.0872C67.6624 72.8419 68.0329 73.5351 68.577 74.0792C69.1212 74.6233 69.8144 74.9939 70.5691 75.144C71.3238 75.2941 72.1061 75.2171 72.817 74.9226C73.5279 74.6281 74.1356 74.1295 74.5631 73.4896C74.9906 72.8498 75.2188 72.0976 75.2188 71.3281C75.2176 70.2966 74.8073 69.3077 74.0779 68.5783C73.3486 67.8489 72.3596 67.4387 71.3281 67.4375ZM71.3281 72.625C71.0716 72.625 70.8209 72.5489 70.6076 72.4064C70.3944 72.2639 70.2281 72.0614 70.13 71.8244C70.0318 71.5874 70.0061 71.3267 70.0562 71.0751C70.1062 70.8235 70.2297 70.5925 70.4111 70.4111C70.5925 70.2297 70.8235 70.1062 71.0751 70.0562C71.3267 70.0061 71.5874 70.0318 71.8244 70.13C72.0614 70.2281 72.2639 70.3944 72.4064 70.6076C72.5489 70.8209 72.625 71.0716 72.625 71.3281C72.6246 71.672 72.4879 72.0016 72.2447 72.2447C72.0016 72.4879 71.672 72.6246 71.3281 72.625Z" fill="black"/>
</svg>
