<svg width="83" height="83" viewBox="0 0 83 83" fill="none" xmlns="http://www.w3.org/2000/svg">
<path d="M72.625 1.29688H10.375C10.031 1.29688 9.70118 1.43351 9.45797 1.67672C9.21476 1.91993 9.07812 2.2498 9.07812 2.59375V80.4062C9.07812 80.7502 9.21476 81.0801 9.45797 81.3233C9.70118 81.5665 10.031 81.7031 10.375 81.7031H72.625C72.969 81.7031 73.2988 81.5665 73.542 81.3233C73.7852 81.0801 73.9219 80.7502 73.9219 80.4062V2.59375C73.9219 2.2498 73.7852 1.91993 73.542 1.67672C73.2988 1.43351 72.969 1.29688 72.625 1.29688ZM71.3281 79.1094H11.6719V19.4531H71.3281V79.1094ZM71.3281 16.8594H11.6719V3.89062H71.3281V16.8594Z" fill="black"/>
<path d="M66.1406 37.6094H62.25C61.906 37.6094 61.5762 37.746 61.333 37.9892C61.0898 38.2324 60.9531 38.5623 60.9531 38.9062V38.916C59.0723 35.3898 56.2692 32.4407 52.843 30.3833C49.4169 28.3259 45.4964 27.2375 41.5 27.2344C29.3434 27.2344 19.4531 37.1247 19.4531 49.2812C19.4531 61.4378 29.3434 71.3281 41.5 71.3281C45.7676 71.324 49.9426 70.083 53.5196 67.7555C57.0967 65.428 59.9225 62.1136 61.6551 58.2135C61.8387 58.3093 62.0428 58.3594 62.25 58.3594H66.1406C66.4846 58.3594 66.8144 58.2227 67.0577 57.9795C67.3009 57.7363 67.4375 57.4065 67.4375 57.0625V38.9062C67.4375 38.5623 67.3009 38.2324 67.0577 37.9892C66.8144 37.746 66.4846 37.6094 66.1406 37.6094ZM41.5 68.7344C37.6525 68.7344 33.8915 67.5935 30.6924 65.4559C27.4934 63.3184 25 60.2802 23.5277 56.7256C22.0553 53.171 21.6701 49.2597 22.4207 45.4861C23.1713 41.7126 25.024 38.2464 27.7446 35.5258C30.4651 32.8052 33.9313 30.9525 37.7049 30.2019C41.4784 29.4513 45.3898 29.8365 48.9444 31.3089C52.499 32.7813 55.5371 35.2746 57.6747 38.4737C59.8122 41.6727 60.9531 45.4338 60.9531 49.2812C60.9474 54.4388 58.896 59.3834 55.2491 63.0303C51.6022 66.6773 46.6575 68.7286 41.5 68.7344ZM64.8438 55.7656H63.5469V40.2031H64.8438V55.7656Z" fill="black"/>
<path d="M41.5 32.4219C38.1655 32.4219 34.9059 33.4107 32.1334 35.2632C29.3609 37.1157 27.2 39.7488 25.924 42.8294C24.6479 45.9101 24.3141 49.2999 24.9646 52.5703C25.6151 55.8407 27.2208 58.8448 29.5786 61.2026C31.9365 63.5604 34.9405 65.1661 38.2109 65.8167C41.4813 66.4672 44.8712 66.1333 47.9518 64.8573C51.0324 63.5812 53.6655 61.4203 55.5181 58.6478C57.3706 55.8753 58.3594 52.6157 58.3594 49.2812C58.3546 44.8113 56.5768 40.5259 53.4161 37.3652C50.2554 34.2045 45.9699 32.4267 41.5 32.4219ZM41.5 35.0156C45.1356 35.0201 48.6327 36.4108 51.2785 38.9042C53.9243 41.3976 55.5198 44.8061 55.7397 48.435C53.7085 49.2213 47.8385 51.0012 42.0803 48.1205C36.1698 45.1669 30.3388 46.3487 27.3689 47.3262C27.8453 43.9158 29.5374 40.7921 32.1339 38.5301C34.7304 36.2682 38.0564 35.0201 41.5 35.0156ZM41.5 63.5469C37.8644 63.5424 34.3674 62.1517 31.7215 59.6583C29.0757 57.1649 27.4802 53.7564 27.2603 50.1275C29.2915 49.3412 35.1615 47.5613 40.9196 50.4419C43.4312 51.6907 46.2008 52.3326 49.0057 52.3159C51.2571 52.3058 53.4929 51.9414 55.6311 51.2363C55.1547 54.6467 53.4626 57.7704 50.8661 60.0323C48.2696 62.2943 44.9436 63.5424 41.5 63.5469Z" fill="black"/>
<path d="M20.75 6.48438H15.5625C15.2185 6.48438 14.8887 6.62101 14.6455 6.86422C14.4023 7.10743 14.2656 7.4373 14.2656 7.78125V12.9688C14.2656 13.3127 14.4023 13.6426 14.6455 13.8858C14.8887 14.129 15.2185 14.2656 15.5625 14.2656H20.75C21.094 14.2656 21.4238 14.129 21.667 13.8858C21.9102 13.6426 22.0469 13.3127 22.0469 12.9688V7.78125C22.0469 7.4373 21.9102 7.10743 21.667 6.86422C21.4238 6.62101 21.094 6.48438 20.75 6.48438ZM19.4531 11.6719H16.8594V9.07812H19.4531V11.6719Z" fill="black"/>
<path d="M29.8281 6.48438H24.6406C24.2967 6.48438 23.9668 6.62101 23.7236 6.86422C23.4804 7.10743 23.3438 7.4373 23.3438 7.78125V12.9688C23.3438 13.3127 23.4804 13.6426 23.7236 13.8858C23.9668 14.129 24.2967 14.2656 24.6406 14.2656H29.8281C30.1721 14.2656 30.5019 14.129 30.7452 13.8858C30.9884 13.6426 31.125 13.3127 31.125 12.9688V7.78125C31.125 7.4373 30.9884 7.10743 30.7452 6.86422C30.5019 6.62101 30.1721 6.48438 29.8281 6.48438ZM28.5312 11.6719H25.9375V9.07812H28.5312V11.6719Z" fill="black"/>
<path d="M67.4375 6.48438H46.6875C46.3435 6.48438 46.0137 6.62101 45.7705 6.86422C45.5273 7.10743 45.3906 7.4373 45.3906 7.78125V12.9688C45.3906 13.3127 45.5273 13.6426 45.7705 13.8858C46.0137 14.129 46.3435 14.2656 46.6875 14.2656H67.4375C67.7815 14.2656 68.1113 14.129 68.3545 13.8858C68.5977 13.6426 68.7344 13.3127 68.7344 12.9688V7.78125C68.7344 7.4373 68.5977 7.10743 68.3545 6.86422C68.1113 6.62101 67.7815 6.48438 67.4375 6.48438ZM66.1406 11.6719H47.9844V9.07812H66.1406V11.6719Z" fill="black"/>
</svg>
